<?xml version="1.0" encoding="UTF-8" standalone="no"?>
<svg
   width="33"
   height="33"
   viewBox="0 0 33 33"
   fill="none"
   version="1.1"
   id="svg10284"
   sodipodi:docname="sum.svg"
   inkscape:version="1.2.2 (b0a84865, 2022-12-01)"
   xmlns:inkscape="http://www.inkscape.org/namespaces/inkscape"
   xmlns:sodipodi="http://sodipodi.sourceforge.net/DTD/sodipodi-0.dtd"
   xmlns="http://www.w3.org/2000/svg"
   xmlns:svg="http://www.w3.org/2000/svg">
  <defs
     id="defs10288" />
  <sodipodi:namedview
     id="namedview10286"
     pagecolor="#505050"
     bordercolor="#eeeeee"
     borderopacity="1"
     inkscape:showpageshadow="0"
     inkscape:pageopacity="0"
     inkscape:pagecheckerboard="0"
     inkscape:deskcolor="#505050"
     showgrid="false"
     inkscape:zoom="6.7704753"
     inkscape:cx="14.991562"
     inkscape:cy="19.127165"
     inkscape:window-width="1344"
     inkscape:window-height="703"
     inkscape:window-x="0"
     inkscape:window-y="103"
     inkscape:window-maximized="0"
     inkscape:current-layer="svg10284" />
  <path
     fill-rule="evenodd"
     clip-rule="evenodd"
     d="m 15.671876,8.0698551 h 1.656227 c 1.441328,0 2.583178,0 3.476366,0.1199795 0.919081,0.1239091 1.663243,0.3842573 2.250621,0.9708435 0.586581,0.5873618 0.846935,1.3315689 0.970867,2.2506499 0.119939,0.893986 0.119939,2.035021 0.119939,3.476349 v 3.224624 c 0,1.441329 0,2.583179 -0.119939,3.476367 -0.123932,0.91908 -0.384286,1.663242 -0.970867,2.250621 -0.587378,0.586581 -1.33154,0.846934 -2.250621,0.970866 -0.893986,0.11994 -2.035038,0.11994 -3.476366,0.11994 h -1.656227 c -1.441329,0 -2.583122,0 -3.47635,-0.11994 C 11.276446,24.686223 10.532238,24.42587 9.9448766,23.839289 9.3582904,23.25191 9.0979422,22.507748 8.9740389,21.588668 8.8540536,20.694681 8.8540536,19.55363 8.8540536,18.112301 v -3.224624 c 0,-1.441328 0,-2.58315 0.1199853,-3.476349 C 9.0979422,10.492247 9.3582904,9.7480399 9.9448766,9.1606781 10.532238,8.5740919 11.276446,8.3137437 12.195526,8.1898346 13.089496,8.0698551 14.230547,8.0698551 15.671876,8.0698551 Z M 12.351579,9.3559407 C 11.562675,9.4618103 11.10784,9.6609911 10.77534,9.9927099 10.444408,10.324423 10.245222,10.779258 10.139352,11.568162 10.031133,12.374318 10.02957,13.43614 10.02957,14.931592 v 3.136794 c 0,1.495453 0.0016,2.558084 0.109782,3.364241 0.10587,0.788076 0.305056,1.242911 0.636775,1.574613 0.331713,0.331759 0.786548,0.530917 1.575452,0.636826 0.806185,0.108191 1.867961,0.109788 3.363413,0.109788 h 1.568397 c 1.495453,0 2.558084,-0.0016 3.364241,-0.109788 0.788076,-0.105909 1.242968,-0.305067 1.57467,-0.636826 0.331702,-0.331702 0.53086,-0.786537 0.636769,-1.575412 0.108191,-0.805415 0.109788,-1.867989 0.109788,-3.363442 v -3.136794 c 0,-1.495452 -0.0016,-2.557268 -0.109788,-3.364211 C 22.75316,10.779264 22.554002,10.324423 22.2223,9.9927099 21.890598,9.6609911 21.435763,9.4618103 20.646831,9.3559407 19.841473,9.2477213 18.778842,9.2461529 17.283389,9.2461529 h -1.568397 c -1.495452,0 -2.556487,0.00157 -3.363413,0.1097878 z m 0.423467,5.5756513 c 0,-0.155984 0.06197,-0.305581 0.172267,-0.415882 0.110301,-0.110301 0.259898,-0.172238 0.415882,-0.172238 h 6.273588 c 0.155985,0 0.305581,0.06194 0.415882,0.172238 0.110301,0.110301 0.172239,0.259898 0.172239,0.415882 0,0.155984 -0.06194,0.305581 -0.172239,0.415882 -0.110301,0.110301 -0.259897,0.172239 -0.415882,0.172239 h -6.273588 c -0.155984,0 -0.305581,-0.06194 -0.415882,-0.172239 -0.110301,-0.110301 -0.172267,-0.259898 -0.172267,-0.415882 z m 0,3.136794 c 0,-0.155984 0.06197,-0.30558 0.172267,-0.415882 0.110301,-0.110301 0.259898,-0.172238 0.415882,-0.172238 h 3.920993 c 0.155984,0 0.305581,0.06194 0.415882,0.172238 0.110301,0.110302 0.172238,0.259898 0.172238,0.415882 0,0.155985 -0.06194,0.305581 -0.172238,0.415882 -0.110301,0.110301 -0.259898,0.172239 -0.415882,0.172239 h -3.920993 c -0.155984,0 -0.305581,-0.06194 -0.415882,-0.172239 -0.110301,-0.110301 -0.172267,-0.259897 -0.172267,-0.415882 z"
     fill="#000000"
     id="path10282"
     style="stroke-width:0.570326" />
</svg>
