<?xml version="1.0" encoding="UTF-8" standalone="no"?>
<!-- Created with Inkscape (http://www.inkscape.org/) -->

<svg
   width="210mm"
   height="210mm"
   viewBox="0 0 210 210"
   version="1.1"
   id="svg5"
   xml:space="preserve"
   xmlns="http://www.w3.org/2000/svg"
   xmlns:svg="http://www.w3.org/2000/svg"><defs
     id="defs2" /><g
     id="layer1"><path
       style="fill:#000000;stroke-width:0.271348"
       d="m 86.413518,150.04461 v -38.80282 h 0.641489 c 0.557447,0 0.664091,-0.1648 0.814044,-1.25897 0.09492,-0.6924 0.172547,-2.46294 0.172547,-3.93452 0,-2.65865 0.0043,-2.67563 0.664896,-2.67563 0.611291,0 0.679753,-0.13108 0.849096,-1.62808 0.167481,-1.4803 0.242601,-1.62812 0.827522,-1.62812 0.598885,0 0.643321,-0.10289 0.643321,-1.492414 0,-1.41101 0.03701,-1.49241 0.678373,-1.49241 0.897914,0 0.955797,-0.99421 0.06784,-1.16524 -0.523473,-0.10099 -0.504123,-0.12277 0.135662,-0.15459 0.664871,-0.033 0.746206,-0.14042 0.746206,-0.98666 0,-0.82464 0.08678,-0.94974 0.658848,-0.94974 0.5951,0 0.676886,-0.14439 0.845311,-1.49242 0.165699,-1.32618 0.256538,-1.49242 0.815545,-1.49242 0.484561,0 0.648809,-0.17154 0.714944,-0.7462 0.06691,-0.5814 0.247036,-0.76481 0.815629,-0.83045 0.563996,-0.0652 0.748916,-0.24995 0.814048,-0.81408 0.06568,-0.5686 0.249089,-0.74872 0.830482,-0.81559 0.57971,-0.0666 0.74621,-0.2291 0.74621,-0.7282 0,-0.49902 0.166495,-0.6615 0.746206,-0.7282 0.586103,-0.0673 0.764633,-0.24597 0.832073,-0.83206 0.0674,-0.5861 0.22754,-0.7462 0.7462,-0.7462 0.51497,0 0.66036,-0.14232 0.66036,-0.64711 0,-0.58089 0.15274,-0.66621 1.49241,-0.83359 1.34802,-0.16843 1.49242,-0.25027 1.49242,-0.84528 0,-0.55119 0.13305,-0.65888 0.81404,-0.65888 0.7236,0 0.81405,-0.0904 0.81405,-0.81404 0,-0.74941 0.0754,-0.81404 0.94972,-0.81404 0.82226,0 0.94972,-0.0873 0.94972,-0.65292 0,-0.57666 0.15655,-0.67444 1.34096,-0.83732 1.19499,-0.16411 1.35007,-0.26318 1.42458,-0.90735 0.0649,-0.56128 0.25045,-0.74211 0.82982,-0.80878 0.58001,-0.0669 0.74621,-0.2291 0.74621,-0.72903 0,-0.52724 0.15891,-0.65847 0.88188,-0.72816 0.73484,-0.0709 0.89621,-0.20956 0.96775,-0.83126 0.0806,-0.70005 0.16751,-0.74621 1.40655,-0.74621 1.23905,0 1.32601,-0.046 1.40656,-0.7462 0.0674,-0.58611 0.24598,-0.76462 0.83206,-0.83205 0.57478,-0.0662 0.74621,-0.23042 0.74621,-0.71496 0,-0.55902 0.16619,-0.64983 1.49242,-0.81553 1.34802,-0.1685 1.49242,-0.25028 1.49242,-0.84532 0,-0.54784 0.1341,-0.65884 0.79602,-0.65884 0.66667,0 0.80997,-0.12117 0.88188,-0.74621 0.0715,-0.6218 0.2329,-0.76041 0.96775,-0.83126 0.71419,-0.0689 0.88188,-0.2036 0.88188,-0.70803 0,-0.53999 0.18986,-0.65523 1.42458,-0.86469 1.16778,-0.19798 1.43982,-0.34878 1.50913,-0.8358 0.0592,-0.41591 0.30342,-0.61941 0.81405,-0.67837 0.56369,-0.0652 0.74864,-0.25028 0.81376,-0.81401 0.0651,-0.56399 0.25005,-0.74892 0.81405,-0.81404 0.51491,-0.0596 0.75503,-0.26186 0.81557,-0.68787 0.071,-0.4999 0.31314,-0.633714 1.40973,-0.779182 1.17395,-0.155601 1.33331,-0.25657 1.40662,-0.88886 0.0678,-0.585246 0.24088,-0.728462 0.96456,-0.798248 0.7198,-0.06952 0.88188,-0.201947 0.88188,-0.720717 0,-0.557106 0.16781,-0.658806 1.35675,-0.82235 1.20048,-0.165197 1.35673,-0.261868 1.35673,-0.839498 0,-0.541249 0.1361,-0.652915 0.79603,-0.652915 0.66667,0 0.80997,-0.121171 0.88189,-0.746206 0.0716,-0.621762 0.2329,-0.760378 0.96774,-0.831223 0.7198,-0.06952 0.88188,-0.201947 0.88188,-0.720749 0,-0.557073 0.16774,-0.658807 1.35674,-0.822317 1.18892,-0.163538 1.35674,-0.265178 1.35674,-0.822317 0,-0.51887 0.16203,-0.651358 0.88188,-0.720749 0.73484,-0.07085 0.8962,-0.209561 0.96776,-0.831223 0.0719,-0.624973 0.21521,-0.746206 0.88188,-0.746206 0.6619,0 0.79602,-0.110898 0.79602,-0.658841 0,-0.596435 0.1437,-0.676817 1.51748,-0.84847 1.41204,-0.176456 1.50891,-0.23439 1.39436,-0.833574 -0.10635,-0.556344 -0.0176,-0.643975 0.65331,-0.643975 h 0.77643 v 40.29527 40.295234 h -0.67838 c -0.65834,0 -0.6793,0.0579 -0.70968,1.96729 -0.0173,1.08201 -0.0597,2.08939 -0.0944,2.23862 -0.0346,0.14941 -0.0816,0.66821 -0.10445,1.15326 -0.0351,0.74874 -0.1437,0.88186 -0.71969,0.88186 -0.67039,0 -0.67838,0.0265 -0.67838,2.30646 0,1.85424 -0.0799,2.31315 -0.40702,2.34039 -0.22385,0.0199 -0.55966,0.0493 -0.74622,0.0678 -0.21743,0.0232 -0.36838,0.59397 -0.42056,1.59417 -0.0745,1.43072 -0.13401,1.56026 -0.71493,1.56026 -0.56445,0 -0.65391,0.16289 -0.82002,1.4924 -0.16844,1.348 -0.25023,1.49242 -0.84533,1.49242 -0.55115,0 -0.65884,0.13315 -0.65884,0.81404 0,0.7236 -0.0904,0.81404 -0.81404,0.81404 -0.7236,0 -0.81405,0.0904 -0.81405,0.81407 0,0.7236 -0.0904,0.81404 -0.81404,0.81404 -0.71951,0 -0.81404,0.0924 -0.81404,0.79604 0,0.66666 -0.12123,0.80993 -0.74622,0.88186 -0.53428,0.0616 -0.77083,0.25922 -0.83291,0.69638 -0.0628,0.4419 -0.26889,0.61054 -0.74622,0.61054 -0.55188,0 -0.65949,0.13281 -0.65949,0.81404 0,0.77178 -0.0598,0.8157 -1.15324,0.84619 -0.63427,0.0173 -1.30586,0.0138 -1.49241,-0.0138 -0.20671,-0.0265 -0.33919,0.27841 -0.33919,0.78189 0,0.76303 -0.0723,0.82592 -0.94972,0.82592 -0.87434,0 -0.94972,0.0645 -0.94972,0.81404 0,0.79452 -0.0321,0.81408 -1.33872,0.81408 -1.2587,0 -1.34385,0.0446 -1.42458,0.7462 -0.0472,0.41042 -0.23849,0.76147 -0.42504,0.78011 -0.18655,0.0199 -0.5834,0.0493 -0.88188,0.068 -0.38893,0.0232 -0.5427,0.2261 -0.5427,0.71231 0,0.57282 -0.12663,0.67836 -0.81405,0.67836 -0.68098,0 -0.81404,0.10756 -0.81404,0.65884 0,0.59587 -0.14405,0.67685 -1.50749,0.84719 -1.42835,0.17844 -1.50314,0.22577 -1.42458,0.9014 0.0729,0.62679 -0.0238,0.72336 -0.79897,0.79808 -0.72235,0.0695 -0.88189,0.20129 -0.88189,0.72668 0,0.57429 -0.15675,0.66126 -1.49241,0.82815 -1.32621,0.16549 -1.49242,0.25657 -1.49242,0.81553 0,0.48456 -0.17142,0.6488 -0.74621,0.71495 -0.5861,0.0674 -0.76463,0.24597 -0.83206,0.83204 -0.0719,0.62498 -0.21523,0.74625 -0.88189,0.74625 -0.52667,0 -0.79602,0.13765 -0.79602,0.40701 0,0.25524 -0.27809,0.41898 -0.74621,0.43911 l -0.7462,0.033 0.81404,0.19268 c 0.72776,0.17241 0.64867,0.21552 -0.74621,0.40617 -1.3894,0.19003 -1.56025,0.28241 -1.56025,0.84252 0,0.48455 -0.17142,0.64878 -0.74621,0.71492 -0.5861,0.0676 -0.76463,0.24597 -0.83207,0.83208 -0.0819,0.71194 -0.15354,0.74622 -1.56025,0.74622 -1.45732,0 -1.47439,0.0104 -1.47439,0.81404 0,0.72359 -0.0904,0.81404 -0.81405,0.81404 -0.68149,0 -0.81404,0.10756 -0.81404,0.66036 0,0.51864 -0.1601,0.67877 -0.74621,0.7462 -0.58611,0.0676 -0.76463,0.24599 -0.83207,0.83206 -0.0819,0.71197 -0.15354,0.7462 -1.56025,0.7462 -1.45732,0 -1.4744,0.0104 -1.4744,0.81404 0,0.7236 -0.0904,0.81404 -0.81404,0.81404 -0.68098,0 -0.81405,0.10756 -0.81405,0.65884 0,0.59514 -0.14441,0.67692 -1.49242,0.84535 -1.339649,0.16722 -1.49241,0.25262 -1.49241,0.83355 0,0.5381 -0.137132,0.64713 -0.814048,0.64713 -0.723596,0 -0.814044,0.0904 -0.814044,0.81404 0,0.72358 -0.09044,0.81404 -0.814047,0.81404 -0.687414,0 -0.814044,0.10566 -0.814044,0.67836 0,0.37311 -0.152643,0.69246 -0.339186,0.70966 -0.186553,0.0173 -0.461292,0.0597 -0.610532,0.0944 -0.149236,0.0348 -0.668196,0.0818 -1.153231,0.10428 -0.789788,0.037 -0.881884,0.12641 -0.881884,0.85535 0,0.72363 -0.09044,0.81408 -0.814045,0.81408 -0.687416,0 -0.814048,0.10565 -0.814048,0.67836 0,0.55814 -0.132255,0.6791 -0.746206,0.68251 -0.987916,0.007 -1.343827,0.26287 -1.495943,1.08125 -0.12392,0.66672 -0.126721,0.66553 -0.163054,-0.068 -0.04615,-0.93196 -0.579647,-0.99441 -0.579647,-0.0678 0,0.57282 -0.126635,0.67836 -0.814047,0.67836 h -0.813899 z m -29.510071,-23.40383 0.06886,-38.870654 0.577366,-0.0825 c 0.726046,-0.10359 0.907963,-1.07485 0.912034,-4.86975 0.0031,-2.74236 0.01331,-2.78132 0.644472,-2.78132 0.557471,0 0.664105,-0.1648 0.814075,-1.25892 0.09468,-0.69245 0.172478,-1.73035 0.172478,-2.30646 0,-0.93647 0.07184,-1.04754 0.678372,-1.04754 0.648215,0 0.678373,-0.0725 0.678373,-1.62808 v -1.62811 h 0.814041 c 0.805831,0 0.81404,-0.0166 0.81404,-1.49242 0,-1.47731 0.0066,-1.49241 0.814042,-1.49241 0.723594,0 0.814041,-0.0904 0.814041,-0.81404 0,-0.67692 0.10891,-0.81404 0.64712,-0.81404 0.579287,0 0.666256,-0.15328 0.8299,-1.46315 l 0.182743,-1.46311 1.476556,-0.1844 c 1.33175,-0.16653 1.476556,-0.24896 1.476556,-0.84331 0,-0.55115 0.133087,-0.65887 0.814042,-0.65887 0.723596,0 0.81404,-0.0904 0.81404,-0.81404 0,-0.723599 0.09037,-0.814043 0.814041,-0.814043 0.67897,0 0.81404,-0.108253 0.81404,-0.652915 0,-0.577699 0.156258,-0.6744 1.356747,-0.839499 1.200491,-0.165198 1.356748,-0.261868 1.356748,-0.839499 0,-0.54456 0.135109,-0.652915 0.814048,-0.652915 0.723595,0 0.814044,-0.09037 0.814044,-0.81404 0,-0.719491 0.09246,-0.814043 0.796021,-0.814043 0.666676,0 0.809975,-0.12117 0.881885,-0.746206 0.07154,-0.621794 0.232899,-0.760408 0.96774,-0.831255 0.719802,-0.06952 0.881882,-0.201947 0.881882,-0.720749 0,-0.557072 0.167809,-0.658774 1.356747,-0.822317 1.200482,-0.165198 1.356741,-0.261868 1.356741,-0.839499 0,-0.544558 0.135109,-0.652915 0.814044,-0.652915 0.723596,0 0.814044,-0.09037 0.814044,-0.81404 0,-0.723596 0.09044,-0.814041 0.814048,-0.814041 0.687414,0 0.814042,-0.105607 0.814042,-0.678373 0,-0.53658 0.137168,-0.678372 0.656181,-0.678372 0.360896,0 0.849324,-0.07415 1.085392,-0.164869 0.509873,-0.195656 0.57416,-1.097295 0.09004,-1.262759 -0.186551,-0.0639 0.36293,-0.204925 1.221067,-0.313513 1.416796,-0.179433 1.560255,-0.258226 1.560255,-0.856383 0,-0.551147 0.133051,-0.65884 0.814044,-0.65884 0.723597,0 0.814048,-0.09037 0.814048,-0.814073 0,-0.723596 0.09044,-0.814042 0.814043,-0.814042 0.680982,0 0.814048,-0.107596 0.814048,-0.65884 0,-0.595112 0.144412,-0.676882 1.492413,-0.845326 1.326211,-0.165527 1.492415,-0.25657 1.492415,-0.81553 0,-0.484571 0.171423,-0.648809 0.746211,-0.714956 0.586103,-0.06753 0.76463,-0.245976 0.832067,-0.832063 0.0719,-0.62494 0.215221,-0.746206 0.881885,-0.746206 0.703571,0 0.796021,-0.09468 0.796021,-0.814042 0,-0.723594 0.0904,-0.814073 0.81404,-0.814073 0.68099,0 0.81405,-0.107596 0.81405,-0.65884 0,-0.595343 0.14428,-0.67685 1.497,-0.845888 0.86246,-0.107596 1.48143,-0.317155 1.46027,-0.494371 -0.0883,-0.738726 0.0733,-0.954939 0.77377,-1.035553 0.58611,-0.06753 0.76463,-0.245976 0.83207,-0.832051 0.0719,-0.624938 0.21522,-0.746206 0.88188,-0.746206 0.65992,0 0.79603,-0.111573 0.79603,-0.652915 0,-0.576671 0.15655,-0.674432 1.34096,-0.837313 1.195,-0.164212 1.35007,-0.263192 1.42458,-0.907366 0.0649,-0.561279 0.25045,-0.742102 0.82982,-0.808778 0.58611,-0.06753 0.74621,-0.227436 0.74621,-0.746206 0,-0.552802 0.13255,-0.66033 0.81405,-0.66033 0.72359,0 0.81404,-0.09037 0.81404,-0.814073 0,-0.723596 0.0904,-0.814043 0.81405,-0.814043 0.67692,0 0.81404,-0.10891 0.81404,-0.647087 0,-0.580875 0.15275,-0.666189 1.49242,-0.833572 1.34802,-0.168501 1.49241,-0.250281 1.49241,-0.845327 0,-0.551147 0.13306,-0.658839 0.81405,-0.658839 0.7236,0 0.81405,-0.09037 0.81405,-0.814041 0,-0.723596 0.0904,-0.814042 0.81404,-0.814042 0.68742,0 0.81405,-0.105607 0.81405,-0.678372 0,-0.538435 0.13673,-0.678373 0.66277,-0.678373 0.58574,0 0.67247,0.134071 0.74621,1.153244 0.0459,0.634276 0.0511,8.632261 0.0116,17.773295 l -0.0719,16.620131 h -0.67427 c -0.5683,0 -0.67427,0.127793 -0.67427,0.81404 0,0.723596 -0.0905,0.81404 -0.81405,0.81404 -0.68149,0 -0.81405,0.107596 -0.81405,0.660363 0,0.518637 -0.16009,0.678771 -0.7462,0.746208 -0.58611,0.06753 -0.76463,0.245976 -0.83207,0.832049 -0.0819,0.711942 -0.15355,0.746208 -1.56026,0.746208 -1.45731,0 -1.47439,0.0099 -1.47439,0.814044 0,0.72359 -0.0904,0.81404 -0.81405,0.81404 -0.68149,0 -0.81404,0.10759 -0.81404,0.66036 0,0.51867 -0.1601,0.67877 -0.74621,0.74621 -0.53429,0.0616 -0.77084,0.25922 -0.83292,0.69638 -0.0621,0.43716 -0.26948,0.61054 -0.73019,0.61054 -0.35392,0 -0.71895,0.12215 -0.81119,0.27147 -0.0922,0.1493 -0.46576,0.27146 -0.83006,0.27146 -0.52562,0 -0.66236,0.14004 -0.66236,0.67838 0,0.57283 -0.12663,0.67837 -0.81404,0.67837 -0.7236,0 -0.81405,0.0904 -0.81405,0.81404 0,0.7236 -0.0904,0.81404 -0.81404,0.81404 -0.68098,0 -0.81405,0.1076 -0.81405,0.65884 0,0.59511 -0.14441,0.67692 -1.49241,0.84533 -1.33966,0.16751 -1.49242,0.2526 -1.49242,0.83357 0,0.5381 -0.13713,0.64709 -0.81405,0.64709 -0.72359,0 -0.81404,0.0904 -0.81404,0.81404 0,0.80583 -0.0152,0.81407 -1.49242,0.81407 -1.477339,0 -1.492415,0.007 -1.492415,0.81404 0,0.7236 -0.09044,0.81404 -0.814045,0.81404 -0.681492,0 -0.814048,0.1076 -0.814048,0.66037 0,0.51864 -0.160096,0.67877 -0.746206,0.74617 -0.577553,0.0666 -0.764974,0.24797 -0.829235,0.80272 -0.07529,0.6499 -0.22095,0.73406 -1.560256,0.90141 -1.332459,0.16653 -1.477223,0.24896 -1.477223,0.8434 0,0.55116 -0.133051,0.65884 -0.814048,0.65884 -0.723595,0 -0.814044,0.0904 -0.814044,0.81407 0,0.7236 -0.09044,0.81404 -0.814045,0.81404 -0.681491,0 -0.814048,0.10756 -0.814048,0.66035 0,0.51866 -0.160096,0.67875 -0.746206,0.7462 -0.586106,0.0674 -0.764629,0.24597 -0.832069,0.83207 -0.06744,0.58612 -0.227537,0.74622 -0.746208,0.74622 -0.552821,0 -0.660349,0.13246 -0.660349,0.81404 0,0.7236 -0.09044,0.81404 -0.814044,0.81404 -0.723596,0 -0.814048,0.0904 -0.814048,0.81404 0,0.68099 -0.107699,0.81408 -0.658844,0.81408 -0.595102,0 -0.676886,0.14439 -0.845313,1.49238 -0.166132,1.32963 -0.255577,1.49244 -0.820025,1.49244 -0.580965,0 -0.640321,0.12952 -0.714944,1.56024 -0.07704,1.47703 -0.121171,1.56483 -0.82759,1.6461 l -0.746206,0.0858 v 3.10249 3.102484 h -0.67837 -0.678371 l -0.0029,24.48923 c -0.0016,13.46904 -0.07759,24.94043 -0.168778,25.49191 -0.136959,0.82834 -0.289578,1.01711 -0.877608,1.08542 -0.543267,0.0629 -0.752715,0.27544 -0.884516,0.8967 l -0.172686,0.81404 -0.03211,-0.7462 c -0.04396,-1.02206 -1.1175,-1.0872 -1.1175,-0.068 0,0.57285 -0.126635,0.67838 -0.814037,0.67838 -0.723595,0 -0.814042,0.0904 -0.814042,0.81407 0,0.72355 -0.09037,0.81404 -0.814073,0.81404 -0.680955,0 -0.81404,0.10756 -0.81404,0.65884 0,0.59508 -0.144343,0.67687 -1.492414,0.84529 -1.326189,0.16549 -1.492414,0.25657 -1.492414,0.81556 0,0.48454 -0.171493,0.64881 -0.746206,0.71492 -0.586108,0.0676 -0.764614,0.24599 -0.832084,0.83209 -0.08178,0.71195 -0.153612,0.7462 -1.560248,0.7462 -1.457287,0 -1.47437,0.0104 -1.47437,0.81404 0,0.7236 -0.09037,0.81404 -0.814041,0.81404 -0.680988,0 -0.814073,0.10756 -0.814073,0.65884 0,0.59511 -0.144343,0.67693 -1.492414,0.84532 -1.326189,0.1655 -1.492414,0.25658 -1.492414,0.81555 0,0.48456 -0.171492,0.64881 -0.746208,0.71495 -0.586106,0.0676 -0.764645,0.24597 -0.832049,0.83208 -0.07183,0.62517 -0.215189,0.7462 -0.882834,0.7462 H 56.834767 Z M 89.398349,48.288932 c 0,-0.298615 -0.122105,-0.542704 -0.271336,-0.542704 -0.149237,0 -0.271336,0.244321 -0.271336,0.542704 0,0.298615 0.122087,0.542672 0.271336,0.542672 0.149236,0 0.271336,-0.244321 0.271336,-0.542672 z"
       id="path314" /></g></svg>
