<?xml version="1.0" encoding="UTF-8" standalone="no"?>
<!-- Created with Inkscape (http://www.inkscape.org/) -->

<svg
   width="420mm"
   height="210mm"
   viewBox="0 0 420 210"
   version="1.1"
   id="svg5"
   xml:space="preserve"
   xmlns="http://www.w3.org/2000/svg"
   xmlns:svg="http://www.w3.org/2000/svg"><defs
     id="defs2" /><g
     id="layer1"><path
       style="fill:#000000;stroke-width:0.156914"
       d="m 56.137745,134.11725 v -22.43874 h 0.370958 c 0.322358,0 0.384028,-0.0953 0.470742,-0.72803 0.05489,-0.4004 0.09978,-1.42426 0.09978,-2.27524 0,-1.53743 0.0025,-1.54725 0.384493,-1.54725 0.353495,0 0.393085,-0.0758 0.491012,-0.94148 0.09685,-0.85602 0.14029,-0.9415 0.478536,-0.9415 0.346321,0 0.372017,-0.0595 0.372017,-0.86303 0,-0.81595 0.0214,-0.86302 0.392287,-0.86302 0.519242,0 0.552714,-0.57493 0.03923,-0.67383 -0.302712,-0.0584 -0.291522,-0.071 0.07845,-0.0894 0.384479,-0.0191 0.431513,-0.0812 0.431513,-0.57056 0,-0.47687 0.05018,-0.54921 0.380996,-0.54921 0.344132,0 0.391427,-0.0835 0.488823,-0.86303 0.09582,-0.7669 0.14835,-0.863032 0.47161,-0.863032 0.28021,0 0.375191,-0.0992 0.413435,-0.43151 0.03869,-0.33621 0.142855,-0.44227 0.471659,-0.48023 0.326145,-0.0377 0.43308,-0.14454 0.470744,-0.47076 0.03798,-0.32881 0.144042,-0.43297 0.480248,-0.47164 0.335232,-0.0385 0.431515,-0.13248 0.431515,-0.4211 0,-0.28857 0.09628,-0.38253 0.431513,-0.4211 0.33893,-0.0389 0.442168,-0.14224 0.481167,-0.48116 0.039,-0.33893 0.131579,-0.43151 0.431513,-0.43151 0.297792,0 0.381865,-0.0823 0.381865,-0.37421 0,-0.33591 0.08833,-0.38525 0.863026,-0.48204 0.779529,-0.0974 0.863029,-0.14473 0.863029,-0.48881 0,-0.31874 0.07694,-0.38101 0.470744,-0.38101 0.418438,0 0.470742,-0.0523 0.470742,-0.47074 0,-0.43337 0.04359,-0.47074 0.5492,-0.47074 0.475493,0 0.549201,-0.0505 0.549201,-0.37757 0,-0.33347 0.09053,-0.39001 0.775447,-0.4842 0.691036,-0.0949 0.780714,-0.15219 0.8238,-0.5247 0.03754,-0.324578 0.144827,-0.429144 0.479867,-0.467701 0.335405,-0.03867 0.431515,-0.132479 0.431515,-0.421577 0,-0.304893 0.09189,-0.380781 0.509971,-0.42108 0.424935,-0.04097 0.518251,-0.121184 0.559621,-0.480695 0.04658,-0.404826 0.09687,-0.431514 0.813378,-0.431514 0.71651,0 0.766796,-0.02661 0.813378,-0.431513 0.039,-0.338931 0.142243,-0.442158 0.481165,-0.481155 0.33238,-0.03829 0.431515,-0.133244 0.431515,-0.413441 0,-0.323271 0.0961,-0.375784 0.863029,-0.471602 0.779527,-0.09744 0.863028,-0.144731 0.863028,-0.488831 0,-0.316801 0.07755,-0.380992 0.46032,-0.380992 0.385521,0 0.468388,-0.07007 0.509971,-0.431513 0.04137,-0.359569 0.134681,-0.439727 0.559624,-0.480695 0.412999,-0.03982 0.50997,-0.117738 0.50997,-0.40944 0,-0.312264 0.109793,-0.378905 0.823801,-0.500031 0.675303,-0.114484 0.832614,-0.201686 0.872698,-0.483318 0.03423,-0.240511 0.175458,-0.358191 0.470744,-0.392287 0.325969,-0.03771 0.432921,-0.144731 0.470578,-0.470721 0.03766,-0.326143 0.144597,-0.433083 0.470742,-0.47074 0.297761,-0.03446 0.436617,-0.151432 0.471624,-0.397781 0.04108,-0.28908 0.181087,-0.366461 0.815218,-0.450582 0.678864,-0.08998 0.771021,-0.148368 0.813414,-0.514006 0.03923,-0.338434 0.139295,-0.421252 0.557782,-0.461608 0.416242,-0.0402 0.509971,-0.116781 0.509971,-0.416773 0,-0.322161 0.09704,-0.380972 0.784571,-0.475545 0.694209,-0.09553 0.784569,-0.151432 0.784569,-0.485462 0,-0.312991 0.0787,-0.377565 0.46032,-0.377565 0.38552,0 0.46839,-0.07007 0.50998,-0.431513 0.0414,-0.35955 0.13468,-0.439708 0.55962,-0.480676 0.41624,-0.0402 0.50997,-0.116781 0.50997,-0.416792 0,-0.322142 0.097,-0.380972 0.78457,-0.475526 0.68752,-0.09457 0.78457,-0.153346 0.78457,-0.475526 0,-0.30005 0.0937,-0.376665 0.50997,-0.416792 0.42494,-0.04097 0.51825,-0.121184 0.55963,-0.480676 0.0416,-0.361407 0.12445,-0.431513 0.50997,-0.431513 0.38276,0 0.46032,-0.06413 0.46032,-0.380992 0,-0.344904 0.0831,-0.391387 0.87752,-0.49065 0.81655,-0.10204 0.87257,-0.135542 0.80633,-0.482036 -0.0615,-0.32172 -0.0102,-0.372395 0.37779,-0.372395 h 0.44899 v 23.301785 23.301762 h -0.39229 c -0.3807,0 -0.39282,0.0335 -0.41039,1.13764 -0.01,0.6257 -0.0345,1.20824 -0.0546,1.29454 -0.02,0.0864 -0.0472,0.38641 -0.0604,0.6669 -0.0203,0.43298 -0.0831,0.50996 -0.41618,0.50996 -0.38767,0 -0.39229,0.0153 -0.39229,1.33377 0,1.07226 -0.0462,1.33764 -0.23537,1.35339 -0.12945,0.0115 -0.32364,0.0285 -0.43152,0.0392 -0.12574,0.0134 -0.21303,0.34348 -0.2432,0.92187 -0.0431,0.82735 -0.0775,0.90226 -0.41343,0.90226 -0.32641,0 -0.37814,0.0942 -0.4742,0.86302 -0.0974,0.77952 -0.1447,0.86303 -0.48883,0.86303 -0.31872,0 -0.38099,0.077 -0.38099,0.47074 0,0.41844 -0.0523,0.47074 -0.47074,0.47074 -0.41844,0 -0.47075,0.0523 -0.47075,0.47076 0,0.41844 -0.0523,0.47074 -0.47074,0.47074 -0.41607,0 -0.47074,0.0534 -0.47074,0.46033 0,0.38551 -0.0701,0.46836 -0.43152,0.50996 -0.30896,0.0356 -0.44575,0.1499 -0.48165,0.4027 -0.0363,0.25554 -0.15549,0.35306 -0.43152,0.35306 -0.31914,0 -0.38137,0.0768 -0.38137,0.47074 0,0.4463 -0.0346,0.4717 -0.666887,0.48933 -0.366787,0.01 -0.755149,0.008 -0.863027,-0.008 -0.119538,-0.0153 -0.196144,0.161 -0.196144,0.45215 0,0.44124 -0.04183,0.47761 -0.549199,0.47761 -0.505614,0 -0.549201,0.0373 -0.549201,0.47074 0,0.45945 -0.01857,0.47076 -0.77415,0.47076 -0.727879,0 -0.777116,0.0258 -0.8238,0.43151 -0.0273,0.23734 -0.137916,0.44034 -0.245794,0.45112 -0.107878,0.0115 -0.337365,0.0285 -0.509971,0.0393 -0.224909,0.0134 -0.313827,0.13075 -0.313827,0.41191 0,0.33125 -0.07323,0.39228 -0.470744,0.39228 -0.393795,0 -0.470742,0.0622 -0.470742,0.38099 0,0.34458 -0.0833,0.39141 -0.871747,0.48991 -0.825979,0.10319 -0.869228,0.13056 -0.823801,0.52126 0.04214,0.36246 -0.01378,0.4183 -0.462023,0.46151 -0.417716,0.0402 -0.509973,0.1164 -0.509973,0.42022 0,0.3321 -0.09065,0.38239 -0.863029,0.4789 -0.766914,0.0957 -0.863027,0.14837 -0.863027,0.4716 0,0.28021 -0.09913,0.37519 -0.431515,0.41344 -0.338929,0.039 -0.442167,0.14224 -0.481164,0.48115 -0.04158,0.36141 -0.124458,0.43154 -0.509973,0.43154 -0.304563,0 -0.46032,0.0796 -0.46032,0.23536 0,0.1476 -0.160812,0.24229 -0.431515,0.25393 l -0.431514,0.0191 0.470742,0.11142 c 0.420849,0.0997 0.375109,0.12463 -0.431513,0.23488 -0.803461,0.10989 -0.902257,0.16331 -0.902257,0.48721 0,0.2802 -0.09913,0.37517 -0.431514,0.41342 -0.338931,0.0391 -0.442167,0.14224 -0.481166,0.48117 -0.04736,0.4117 -0.08879,0.43152 -0.902257,0.43152 -0.84273,0 -0.852605,0.006 -0.852605,0.47074 0,0.41844 -0.0523,0.47074 -0.470744,0.47074 -0.39409,0 -0.470742,0.0622 -0.470742,0.38187 0,0.29992 -0.09258,0.39252 -0.431516,0.43151 -0.338929,0.0391 -0.442167,0.14225 -0.481164,0.48116 -0.04738,0.41172 -0.08879,0.43151 -0.902257,0.43151 -0.84273,0 -0.852607,0.006 -0.852607,0.47074 0,0.41844 -0.0523,0.47074 -0.470742,0.47074 -0.393795,0 -0.470744,0.0622 -0.470744,0.38099 0,0.34416 -0.08351,0.39145 -0.863029,0.48885 -0.774689,0.0967 -0.863027,0.14608 -0.863027,0.48202 0,0.31117 -0.0793,0.37422 -0.470744,0.37422 -0.418438,0 -0.470742,0.0523 -0.470742,0.47074 0,0.41843 -0.0523,0.47074 -0.470744,0.47074 -0.397515,0 -0.470742,0.0611 -0.470742,0.39228 0,0.21576 -0.08827,0.40043 -0.196143,0.41038 -0.107879,0.01 -0.266754,0.0345 -0.353056,0.0546 -0.0863,0.0201 -0.386402,0.0473 -0.666886,0.0603 -0.456715,0.0214 -0.509972,0.0731 -0.509972,0.49463 0,0.41846 -0.0523,0.47076 -0.470743,0.47076 -0.397516,0 -0.470744,0.0611 -0.470744,0.39228 0,0.32276 -0.07648,0.39271 -0.431513,0.39468 -0.571288,0.004 -0.777103,0.15201 -0.865068,0.62526 -0.07166,0.38555 -0.07328,0.38486 -0.09429,-0.0393 -0.02669,-0.53893 -0.335196,-0.57504 -0.335196,-0.0392 0,0.33125 -0.07323,0.39228 -0.470744,0.39228 H 56.13772 Z m 164.759985,14.96373 c -3.67755,-0.46216 -6.68798,-1.35888 -9.72302,-2.89621 -7.71944,-3.91008 -13.36876,-11.51159 -15.45238,-20.79211 -0.76587,-3.41118 -0.93889,-5.18288 -0.93323,-9.55593 0.004,-3.40608 0.0624,-4.45021 0.35151,-6.32316 1.04073,-6.74295 3.33793,-12.037662 7.26811,-16.751932 3.81604,-4.577337 9.30591,-7.870987 15.27227,-9.162579 4.78882,-1.036685 10.75628,-0.768129 15.18774,0.683529 4.2582,1.394876 8.75291,4.475622 11.69654,8.017 l 0.65215,0.78457 0.002,-4.581353 0.002,-4.581356 8.15953,-0.0038 8.15955,-0.0038 v 32.083751 32.08375 h -8.15955 -8.15953 v -4.63829 -4.63828 l -0.93993,1.1684 c -3.66501,4.55588 -9.11031,7.70849 -15.22224,8.8131 -1.44476,0.26111 -6.86552,0.45604 -8.15954,0.29342 z m 11.21937,-14.56265 c 3.19215,-0.7397 6.19308,-2.48641 8.36635,-4.86969 3.31718,-3.63773 4.93464,-8.7054 4.68385,-14.67493 -0.20327,-4.8377 -1.47162,-8.42884 -4.16675,-11.7973 -2.55039,-3.187592 -7.13545,-5.577512 -11.31562,-5.898142 -8.60138,-0.65974 -15.64254,4.507452 -17.81565,13.074072 -0.37737,1.4877 -0.70953,4.94824 -0.60921,6.34742 0.23548,3.28467 0.43262,4.44011 1.11106,6.51196 1.45177,4.43352 4.99497,8.44548 9.07854,10.27965 3.24772,1.45874 7.17325,1.83665 10.66743,1.02696 z m 117.92108,14.55869 c -8.22272,-0.80509 -14.63711,-3.67699 -19.78694,-8.85912 -4.69339,-4.72283 -7.54092,-10.66029 -8.72038,-18.18304 -0.40081,-2.5564 -0.40259,-9.34936 -0.002,-11.9255 0.64362,-4.15069 1.72832,-7.67506 3.33202,-10.826242 4.51852,-8.878782 12.29153,-14.313822 22.82471,-15.959546 2.73658,-0.427551 8.93577,-0.388535 11.61165,0.07313 4.94862,0.853742 8.56797,2.228669 12.39623,4.709087 8.97707,5.816489 14.00435,16.841781 13.19284,28.933251 -0.0888,1.32369 -0.2081,2.74213 -0.26503,3.15207 l -0.10357,0.74535 h -23.43738 -23.43736 v 0.53187 c 0,1.64715 0.83653,4.49634 1.9483,6.63586 3.07618,5.91994 10.07515,8.85155 17.2737,7.23537 3.53711,-0.79415 6.29868,-2.80505 8.26008,-6.01477 l 0.81103,-1.32718 h 8.68447 c 5.92729,0 8.68448,0.0521 8.68448,0.16368 0,0.3782 -1.19206,3.32486 -1.92674,4.76271 -3.09187,6.05111 -8.18585,10.9278 -14.16054,13.55655 -2.91212,1.28129 -6.42179,2.17648 -9.9379,2.53481 -1.49062,0.15181 -5.93239,0.18972 -7.24064,0.0616 z m 18.11112,-39.10437 c 0.17728,-0.28676 -0.26777,-2.98349 -0.71537,-4.33535 -1.37994,-4.1678 -5.09526,-7.469632 -9.9075,-8.804832 -1.75764,-0.48768 -5.43167,-0.68223 -7.32139,-0.38769 -4.79816,0.74787 -8.85424,3.761042 -10.91855,8.111172 -0.77211,1.62706 -1.76884,5.21988 -1.51778,5.47095 0.14339,0.14339 30.29172,0.0896 30.38059,-0.0542 z M 119.84494,107.67718 V 67.271743 h 8.08108 8.0811 v 16.632917 16.63293 h 17.33902 17.33901 V 83.903262 67.268929 l 8.12032,0.04059 8.12031,0.04059 0.0337,40.366221 0.0337,40.36621 h -8.15399 -8.15402 v -17.1821 -17.18211 h -17.33901 -17.33903 v 17.18211 17.18212 h -8.08109 -8.08108 z m 149.85796,33.93273 0.004,-6.47271 7.05612,-9.49331 c 3.88087,-5.22134 10.19873,-13.73002 14.0397,-18.90819 l 6.98356,-9.414862 -13.96606,-0.04 -13.96606,-0.04 v -6.661407 -6.661408 l 23.26255,0.03255 23.26254,0.03254 0.041,6.517404 0.041,6.517381 -14.12397,18.868902 c -7.76824,10.3779 -14.12404,18.90179 -14.12404,18.94197 0,0.0402 6.42564,0.0731 14.2792,0.0731 h 14.27921 v 6.5904 6.5904 h -23.53714 -23.53714 l 0.004,-6.47272 z m -230.630119,-21.02653 0.03982,-22.477962 0.333877,-0.0477 c 0.419855,-0.0599 0.525053,-0.62156 0.527407,-2.81606 0.0018,-1.58584 0.0077,-1.60837 0.372683,-1.60837 0.322372,0 0.384036,-0.0953 0.47076,-0.728 0.05475,-0.40043 0.09974,-1.000621 0.09974,-1.333771 0,-0.541536 0.04154,-0.605765 0.392286,-0.605765 0.374847,0 0.392287,-0.04193 0.392287,-0.941481 v -0.941499 h 0.47074 c 0.465993,0 0.47074,-0.0096 0.47074,-0.863027 0,-0.854297 0.0038,-0.863027 0.470741,-0.863027 0.418437,0 0.47074,-0.05226 0.47074,-0.47074 0,-0.391444 0.06298,-0.47074 0.374214,-0.47074 0.334988,0 0.38528,-0.08864 0.479911,-0.846104 l 0.105676,-0.846084 0.853857,-0.106634 c 0.770119,-0.0963 0.853857,-0.143965 0.853857,-0.487663 0,-0.318715 0.07696,-0.381011 0.47074,-0.381011 0.418438,0 0.47074,-0.05226 0.47074,-0.47074 0,-0.418438 0.05226,-0.47074 0.47074,-0.47074 0.392632,0 0.47074,-0.0626 0.47074,-0.377565 0,-0.334069 0.09036,-0.389989 0.784574,-0.485462 0.694216,-0.09553 0.784575,-0.151432 0.784575,-0.485462 0,-0.314906 0.07813,-0.377565 0.470744,-0.377565 0.418438,0 0.470742,-0.05226 0.470742,-0.47074 0,-0.416064 0.05347,-0.470741 0.46032,-0.470741 0.385523,0 0.468389,-0.07007 0.509973,-0.431513 0.04137,-0.359569 0.13468,-0.439726 0.559621,-0.480695 0.416244,-0.0402 0.509971,-0.116781 0.509971,-0.416792 0,-0.322141 0.09704,-0.380953 0.784574,-0.475526 0.69421,-0.09553 0.784571,-0.151432 0.784571,-0.485462 0,-0.314905 0.07813,-0.377565 0.470742,-0.377565 0.418438,0 0.470742,-0.05226 0.470742,-0.47074 0,-0.418438 0.0523,-0.47074 0.470744,-0.47074 0.397515,0 0.470742,-0.06107 0.470742,-0.392287 0,-0.310291 0.07932,-0.392286 0.379453,-0.392286 0.208698,0 0.491144,-0.04288 0.627656,-0.09534 0.294848,-0.113143 0.332023,-0.634539 0.05207,-0.730223 -0.107878,-0.03695 0.209874,-0.118503 0.706114,-0.181297 0.819299,-0.103762 0.902258,-0.149326 0.902258,-0.495226 0,-0.318715 0.07694,-0.380991 0.470742,-0.380991 0.418439,0 0.470744,-0.05226 0.470744,-0.470759 0,-0.418438 0.0523,-0.470741 0.470742,-0.470741 0.393795,0 0.470744,-0.06222 0.470744,-0.380991 0,-0.344139 0.08351,-0.391425 0.863027,-0.488832 0.766916,-0.09572 0.863028,-0.148368 0.863028,-0.471601 0,-0.280216 0.09913,-0.375191 0.431516,-0.413442 0.338929,-0.03905 0.442167,-0.142242 0.481164,-0.481162 0.04158,-0.361388 0.124457,-0.431513 0.509973,-0.431513 0.406857,0 0.46032,-0.05475 0.46032,-0.470741 0,-0.418437 0.0523,-0.470759 0.470742,-0.470759 0.393795,0 0.470744,-0.06222 0.470744,-0.380991 0,-0.344273 0.08343,-0.391406 0.865678,-0.489157 0.498737,-0.06222 0.856675,-0.183403 0.844438,-0.285883 -0.05106,-0.427187 0.04237,-0.552218 0.447455,-0.598835 0.338929,-0.03905 0.442167,-0.142242 0.481164,-0.481155 0.04158,-0.361387 0.124457,-0.431513 0.509973,-0.431513 0.381611,0 0.46032,-0.06452 0.46032,-0.377565 0,-0.333475 0.09053,-0.390008 0.775449,-0.484198 0.691036,-0.09496 0.780712,-0.152198 0.8238,-0.524708 0.03754,-0.324574 0.144827,-0.42914 0.479866,-0.467697 0.33893,-0.03905 0.431514,-0.131521 0.431514,-0.431513 0,-0.319672 0.07665,-0.381853 0.470742,-0.381853 0.418439,0 0.470744,-0.05226 0.470744,-0.470759 0,-0.418438 0.0523,-0.470741 0.470742,-0.470741 0.39145,0 0.470744,-0.06298 0.470744,-0.374195 0,-0.335906 0.08833,-0.385241 0.863027,-0.482035 0.779528,-0.09744 0.863028,-0.144731 0.863028,-0.488832 0,-0.318715 0.07694,-0.380991 0.470744,-0.380991 0.418438,0 0.470743,-0.05226 0.470743,-0.47074 0,-0.418438 0.0523,-0.470741 0.470742,-0.470741 0.397517,0 0.470744,-0.06107 0.470744,-0.392286 0,-0.311364 0.07907,-0.392287 0.383264,-0.392287 0.338719,0 0.388871,0.07753 0.431513,0.666893 0.02653,0.366787 0.02954,4.991829 0.0067,10.277869 l -0.0416,9.611022 h -0.389917 c -0.328631,0 -0.389916,0.0739 -0.389916,0.47074 0,0.418438 -0.0523,0.47074 -0.470744,0.47074 -0.39409,0 -0.470742,0.06222 -0.470742,0.381872 0,0.299915 -0.09258,0.392517 -0.431514,0.431514 -0.338931,0.03905 -0.442167,0.142242 -0.481166,0.481154 -0.04736,0.411699 -0.08879,0.431514 -0.902257,0.431514 -0.842731,0 -0.852605,0.0057 -0.852605,0.47074 0,0.418438 -0.0523,0.47074 -0.470744,0.47074 -0.39409,0 -0.470742,0.06222 -0.470742,0.381872 0,0.299935 -0.09258,0.392517 -0.431516,0.431514 -0.308964,0.03561 -0.445755,0.1499 -0.481656,0.402701 -0.0359,0.252801 -0.155835,0.35306 -0.422253,0.35306 -0.204661,0 -0.415752,0.07064 -0.46909,0.156983 -0.05334,0.08634 -0.26934,0.156984 -0.480004,0.156984 -0.303951,0 -0.383025,0.08098 -0.383025,0.392287 0,0.331254 -0.07323,0.392286 -0.470742,0.392286 -0.41844,0 -0.470744,0.05226 -0.470744,0.470741 0,0.418437 -0.0523,0.47074 -0.470742,0.47074 -0.393795,0 -0.470744,0.06222 -0.470744,0.380991 0,0.344139 -0.08351,0.391445 -0.863027,0.488832 -0.774691,0.09687 -0.863029,0.146071 -0.863029,0.482035 0,0.311172 -0.0793,0.374195 -0.470744,0.374195 -0.418438,0 -0.470742,0.05226 -0.470742,0.470741 0,0.465992 -0.0088,0.470759 -0.863029,0.470759 -0.85431,0 -0.863028,0.0038 -0.863028,0.47074 0,0.418438 -0.0523,0.47074 -0.470743,0.47074 -0.39409,0 -0.470744,0.06222 -0.470744,0.381872 0,0.299916 -0.09258,0.392517 -0.431513,0.431495 -0.333985,0.03848 -0.442366,0.143391 -0.479527,0.464194 -0.04354,0.37582 -0.12777,0.42449 -0.902258,0.52126 -0.770529,0.0963 -0.854243,0.14397 -0.854243,0.48772 0,0.31872 -0.07694,0.38099 -0.470744,0.38099 -0.418438,0 -0.470742,0.0523 -0.470742,0.47076 0,0.41844 -0.0523,0.47074 -0.470743,0.47074 -0.39409,0 -0.470744,0.0622 -0.470744,0.38186 0,0.29993 -0.09258,0.39251 -0.431513,0.43151 -0.338931,0.039 -0.442167,0.14224 -0.481166,0.48117 -0.039,0.33894 -0.131579,0.43152 -0.431514,0.43152 -0.319683,0 -0.381864,0.0766 -0.381864,0.47074 0,0.41844 -0.0523,0.47074 -0.470742,0.47074 -0.418438,0 -0.470744,0.0523 -0.470744,0.47074 0,0.3938 -0.06228,0.47076 -0.380994,0.47076 -0.344133,0 -0.391427,0.0835 -0.488824,0.86301 -0.09607,0.76889 -0.147794,0.86304 -0.474201,0.86304 -0.335958,0 -0.370282,0.0749 -0.413435,0.902252 -0.04455,0.85413 -0.07007,0.9049 -0.478575,0.9519 l -0.431513,0.0496 v 1.7941 1.79409 H 52.13645 51.744164 l -0.0017,14.16153 c -9.49e-4,7.78882 -0.04487,14.42245 -0.0976,14.74136 -0.0792,0.47901 -0.167456,0.58817 -0.5075,0.62767 -0.314158,0.0364 -0.435277,0.15928 -0.511494,0.51854 l -0.09986,0.47074 -0.01857,-0.43151 c -0.02542,-0.59103 -0.646223,-0.6287 -0.646223,-0.0393 0,0.33127 -0.07323,0.39229 -0.470738,0.39229 -0.418438,0 -0.470741,0.0523 -0.470741,0.47076 0,0.41841 -0.05226,0.47074 -0.470759,0.47074 -0.39378,0 -0.47074,0.0622 -0.47074,0.38099 0,0.34412 -0.08347,0.39142 -0.863027,0.48881 -0.766903,0.0957 -0.863027,0.14837 -0.863027,0.47162 0,0.2802 -0.09917,0.37519 -0.431513,0.41342 -0.338932,0.0391 -0.442158,0.14225 -0.481174,0.48118 -0.04729,0.4117 -0.08883,0.43151 -0.902254,0.43151 -0.842714,0 -0.852593,0.006 -0.852593,0.47074 0,0.41844 -0.05226,0.47074 -0.47074,0.47074 -0.393799,0 -0.470759,0.0622 -0.470759,0.38099 0,0.34414 -0.08347,0.39145 -0.863027,0.48883 -0.766903,0.0957 -0.863027,0.14837 -0.863027,0.47161 0,0.28021 -0.09917,0.37519 -0.431514,0.41344 -0.338931,0.0391 -0.442176,0.14224 -0.481154,0.48117 -0.04154,0.36152 -0.124439,0.43151 -0.510522,0.43151 h -0.460843 z m 18.79102,-45.308989 c 0,-0.172682 -0.07061,-0.313833 -0.156907,-0.313833 -0.0863,0 -0.156907,0.141285 -0.156907,0.313833 0,0.172682 0.0706,0.313814 0.156907,0.313814 0.0863,0 0.156907,-0.141285 0.156907,-0.313814 z"
       id="path314" /></g></svg>
