<?xml version="1.0" encoding="UTF-8" standalone="no"?>
<!-- Created with Inkscape (http://www.inkscape.org/) -->

<svg
   width="210mm"
   height="210mm"
   viewBox="0 0 210 210"
   version="1.1"
   id="svg5"
   xml:space="preserve"
   xmlns="http://www.w3.org/2000/svg"
   xmlns:svg="http://www.w3.org/2000/svg"><defs
     id="defs2" /><g
     id="layer1"><path
       style="fill:#23984d;fill-opacity:1;stroke-width:0.200194"
       d="m 137.72548,155.87655 c -1.36333,-0.72448 -2.12043,-2.47449 -1.93997,-4.48412 0.23163,-2.57914 1.98852,-4.05167 4.35673,-3.65157 1.74644,0.29506 2.85383,1.93878 2.85649,4.23995 0.002,1.91281 -0.59427,3.13672 -1.85317,3.80244 -1.0781,0.57011 -2.45226,0.60759 -3.42008,0.0933 z m 2.76244,-1.14293 c 0.72328,-0.5066 1.09443,-1.45296 1.09443,-2.79058 0,-1.93284 -0.82258,-3.10301 -2.18128,-3.10301 -2.17783,0 -3.10389,3.91923 -1.34229,5.68083 0.61267,0.61267 1.71975,0.70964 2.42914,0.21276 z m 20.95381,1.23201 c -2.27672,-0.99167 -2.88268,-5.23373 -1.02845,-7.19978 1.14199,-1.21086 3.15154,-1.41147 4.58717,-0.45794 1.93981,1.28842 2.13346,5.42327 0.33136,7.07516 -0.9484,0.86935 -2.64748,1.12381 -3.89008,0.58256 z m 2.64191,-1.21294 c 0.65278,-0.45721 1.07162,-1.55537 1.07162,-2.80965 0,-1.37464 -0.4506,-2.41459 -1.21822,-2.81154 -1.71416,-0.88643 -3.18606,0.41244 -3.18606,2.81154 0,1.95261 0.81642,3.10302 2.20214,3.10302 0.39143,0 0.90017,-0.13201 1.13052,-0.29337 z M 24.218271,151.94304 v -4.10399 h 1.808183 c 2.666721,0 3.725254,0.58042 3.936947,2.15873 0.137466,1.02486 -0.393983,2.15973 -1.208651,2.58101 -0.338029,0.1748 -1.181714,0.36335 -1.874858,0.41898 l -1.260261,0.10116 v 1.47405 1.47405 h -0.70068 -0.70068 z m 3.09765,-0.0939 c 0.941133,-0.21819 1.306629,-0.64657 1.306629,-1.53141 0,-0.92351 -0.760962,-1.47773 -2.028941,-1.47773 h -0.973978 v 1.60156 c 0,1.80041 4.01e-4,1.80077 1.69629,1.40758 z m 6.912075,0.0939 v -4.10399 h 0.700688 0.700679 v 3.60351 3.6035 h 1.801752 c 1.788404,0 1.801751,0.004 1.801751,0.50049 v 0.50048 h -2.502431 -2.502439 z m 8.212007,3.95385 c 0.0023,-0.0826 0.569781,-1.90685 1.261268,-4.05394 l 1.257249,-3.9038 0.890824,-0.0516 0.890816,-0.0516 1.331257,4.10551 1.33125,4.10552 h -0.751753 c -0.737816,0 -0.756959,-0.0195 -1.03215,-1.05102 l -0.280396,-1.05103 -1.516467,-0.0579 -1.516475,-0.0579 -0.26602,1.10889 c -0.256842,1.07064 -0.289075,1.10888 -0.934717,1.10888 -0.367795,0 -0.666903,-0.0676 -0.664686,-0.15015 z m 4.400253,-3.35103 c 0,-0.41705 -0.812466,-3.37435 -0.975204,-3.54964 -0.07355,-0.0793 -0.37055,0.75406 -0.659935,1.85181 l -0.526153,1.99589 h 1.08065 c 0.823513,0 1.080642,-0.0709 1.080642,-0.29806 z m 6.206036,-0.60282 v -4.10399 h 0.784604 0.784605 l 1.607464,2.95288 c 0.884108,1.62407 1.683377,3.07834 1.776155,3.23169 0.09389,0.15518 0.13222,-1.15418 0.08644,-2.95287 l -0.08224,-3.2317 h 0.6245 0.624504 v 4.10399 4.10399 h -0.687929 c -0.656184,0 -0.733463,-0.0808 -1.674648,-1.7517 -0.542696,-0.96343 -1.315311,-2.40484 -1.716923,-3.20311 -0.401612,-0.79828 -0.758736,-1.45142 -0.793605,-1.45142 -0.03487,0 -0.02186,1.44141 0.02891,3.20312 l 0.09231,3.20311 H 53.77336 53.046282 Z m 12.812455,0.50049 v -3.6035 h -1.201168 c -1.147782,0 -1.201168,-0.0223 -1.201168,-0.50049 v -0.50049 h 3.103016 3.103017 v 0.4905 c 0,0.4567 -0.07931,0.49463 -1.151119,0.55053 l -1.15112,0.0601 -0.05467,3.55346 -0.05467,3.55345 h -0.696061 -0.696062 z m 12.322169,3.15307 c 0.07551,-0.24775 0.671182,-2.09454 1.323727,-4.10399 l 1.186445,-3.65356 h 0.846541 0.846539 l 1.07916,3.25317 c 0.593532,1.78924 1.196794,3.64131 1.340579,4.11571 l 0.261427,0.86255 -0.744013,-0.0617 c -0.715336,-0.0594 -0.754885,-0.10259 -1.02599,-1.12066 l -0.281976,-1.05888 -1.504542,0.0579 -1.504541,0.0579 -0.291788,1.05103 c -0.279733,1.00761 -0.320221,1.05102 -0.980316,1.05102 -0.621246,0 -0.675116,-0.044 -0.551252,-0.45043 z m 4.444376,-3.00292 c -0.05095,-0.13763 -0.300366,-1.04197 -0.554257,-2.00963 -0.253892,-0.96767 -0.522367,-1.68837 -0.596616,-1.60156 -0.147947,0.17297 -1.001467,3.27121 -1.001467,3.63527 0,0.14119 0.421708,0.22616 1.122489,0.22616 0.813935,0 1.097024,-0.0688 1.029851,-0.25024 z m 6.255836,-0.65064 v -4.10399 h 0.68793 c 0.656182,0 0.733458,0.0808 1.674643,1.75171 0.542694,0.96343 1.315315,2.40483 1.716925,3.20311 0.40161,0.79828 0.765637,1.45141 0.80894,1.45141 0.04328,0 0.02875,-1.4414 -0.03238,-3.20311 l -0.111151,-3.20312 h 0.730575 0.730582 v 4.10399 4.10399 h -0.784606 -0.784599 l -1.607469,-2.95286 c -0.884105,-1.62409 -1.679652,-3.07247 -1.767877,-3.21864 -0.08822,-0.14618 -0.128447,1.18261 -0.08938,2.95287 l 0.07105,3.21863 h -0.621566 -0.621557 z m 11.0107,0 v -4.10399 h 1.708092 c 2.0066,0 2.75862,0.26291 3.64734,1.27512 0.80654,0.91858 0.92491,1.39045 0.80754,3.21913 -0.11196,1.74465 -0.5764,2.62481 -1.72601,3.27092 -0.65287,0.36693 -1.10054,0.44281 -2.61242,0.44281 h -1.824542 z m 3.397292,2.84691 c 0.90368,-0.45727 1.40746,-1.46955 1.40663,-2.82646 -0.001,-1.96953 -1.03399,-3.12346 -2.79555,-3.12346 h -0.60701 v 3.10301 3.10302 l 0.75073,-0.003 c 0.4129,-0.002 0.97324,-0.11554 1.2452,-0.25315 z m 12.41807,-2.84691 v -4.10399 l 1.75171,0.002 c 3.11472,0.002 3.87405,0.45011 4.01279,2.36824 0.0731,1.01072 0.0204,1.22803 -0.42635,1.75901 -0.58114,0.69055 -1.66004,1.07661 -3.00908,1.07661 h -0.92771 v 1.50145 1.50146 h -0.70068 -0.70068 z m 4.09399,-0.50688 c 0.48705,-0.48045 0.51839,-1.67307 0.0561,-2.13534 -0.21175,-0.21174 -0.77678,-0.36628 -1.5415,-0.42159 l -1.20724,-0.0873 v 1.49215 c 0,0.82069 0.0676,1.56046 0.15015,1.64393 0.26777,0.27069 2.13583,-0.0907 2.54248,-0.49183 z m 6.11594,0.50688 v -4.10399 l 1.9519,4e-4 c 3.01898,4e-4 3.95724,0.66858 3.78722,2.69672 -0.071,0.84764 -0.1925,1.08964 -0.81826,1.63057 l -0.73482,0.6352 0.9099,1.53904 c 0.50044,0.84646 0.9099,1.57663 0.9099,1.62259 0,0.0459 -0.33783,0.0823 -0.75073,0.0807 -0.7323,-0.003 -0.77184,-0.0421 -1.61045,-1.60155 -0.81947,-1.524 -0.8921,-1.59884 -1.5515,-1.59884 h -0.6918 v 1.60155 1.60156 h -0.70068 -0.70068 z m 4.04552,-0.63825 c 0.22559,-0.20416 0.35876,-0.60849 0.35876,-1.08929 0,-0.64422 -0.093,-0.8127 -0.59064,-1.07004 -0.32485,-0.16799 -1.00051,-0.30543 -1.50146,-0.30543 h -0.91082 v 1.52902 1.52903 l 1.14269,-0.13431 c 0.62849,-0.0739 1.30414,-0.2804 1.50147,-0.45898 z m 17.5755,0.63825 v -4.10399 h 0.78119 c 0.87817,0 0.69084,-0.31613 1.95185,3.29397 0.38282,1.09599 0.75858,2.10445 0.83501,2.24103 0.0774,0.13826 0.58131,-1.03339 1.13692,-2.64333 l 0.99794,-2.89167 h 0.85215 0.85214 v 4.10399 4.10399 h -0.73158 -0.73156 l 0.10991,-3.25316 c 0.0605,-1.78924 0.0734,-3.16308 0.0288,-3.05297 -0.0446,0.11011 -0.50824,1.37134 -1.03031,2.80273 -0.8538,2.34088 -0.99709,2.60252 -1.42531,2.60252 -0.42877,0 -0.57472,-0.26853 -1.46881,-2.70262 -0.54601,-1.48644 -1.01439,-2.72477 -1.04086,-2.75183 -0.0265,-0.0271 -0.007,1.39181 0.0442,3.15306 l 0.0923,3.20227 h -0.62699 -0.62698 z m 24.82413,0.50049 v -3.6035 h -1.20117 c -1.14777,0 -1.20117,-0.0223 -1.20117,-0.50049 v -0.50049 h 3.10302 3.10302 v 0.4905 c 0,0.4567 -0.0793,0.49463 -1.15112,0.55053 l -1.15112,0.0601 -0.0547,3.55346 -0.0546,3.55345 h -0.69607 -0.69606 z m 8.00779,-0.50049 v -4.10399 h 2.50243 2.50243 v 0.50049 c 0,0.49678 -0.0134,0.50049 -1.80175,0.50049 h -1.80175 v 1.20117 1.20116 h 1.50145 1.50146 v 0.60059 0.60058 h -1.50146 -1.50145 v 1.30126 1.30127 h 1.90184 c 1.89518,0 1.90185,0.002 1.90185,0.50049 v 0.50048 h -2.60253 -2.60252 z M 52.762713,135.61953 c -1.809099,-0.28481 -3.391417,-0.72796 -5.019746,-1.40583 -1.571612,-0.65426 -4.806502,-2.77151 -4.806502,-3.14588 0,-0.23835 4.443012,-5.70637 4.725284,-5.81542 0.0922,-0.0356 0.46308,0.15352 0.824186,0.42031 2.780777,2.05442 6.950164,3.11102 9.263486,2.34755 1.476395,-0.48725 1.990091,-2.19348 1.010785,-3.35733 -0.528157,-0.62768 -1.032013,-0.872 -6.114304,-2.9649 -4.592273,-1.89112 -5.636657,-2.5989 -7.045205,-4.7746 -2.632037,-4.06552 -1.921218,-9.2319 1.711847,-12.44221 4.074134,-3.60006 11.498616,-4.09654 16.744451,-1.11973 1.123007,0.63727 3.233036,2.26073 3.158484,2.43014 -0.03051,0.0693 -0.993998,1.31579 -2.141092,2.76992 -1.968247,2.49508 -2.109081,2.62855 -2.502432,2.3717 -2.569335,-1.67779 -5.472117,-2.41351 -7.624261,-1.93239 -1.39134,0.31103 -2.101599,1.02724 -2.101599,2.1192 0,0.70089 0.109793,0.93882 0.652456,1.41396 0.738717,0.6468 0.89246,0.71656 5.890272,2.67258 2.001948,0.78352 4.170328,1.76741 4.81862,2.18642 4.872993,3.14956 5.386564,10.54592 1.030095,14.83527 -1.318195,1.29789 -3.694928,2.57477 -5.775844,3.10303 -1.554891,0.39473 -5.063606,0.54568 -6.698981,0.28821 z m 98.879417,0.0843 c -1.8254,-0.27614 -3.67855,-0.73364 -4.86473,-1.201 -1.52095,-0.59927 -4.0152,-2.02943 -5.0158,-2.87598 l -0.67158,-0.56818 2.4428,-2.92081 c 1.34355,-1.60644 2.48535,-2.9208 2.53736,-2.9208 0.052,0 0.47114,0.25793 0.9314,0.57318 1.75804,1.20415 3.43931,1.89934 5.58338,2.30867 3.27583,0.6254 5.5994,-0.63616 4.97993,-2.70379 -0.2977,-0.99364 -0.84796,-1.31317 -5.82267,-3.38118 -4.58436,-1.90574 -5.26579,-2.27999 -6.57729,-3.61235 -3.3371,-3.39015 -3.73764,-8.69834 -0.92924,-12.315 1.55329,-2.00033 3.11799,-3.08158 5.82687,-4.0265 1.43678,-0.50119 1.84197,-0.55167 4.48239,-0.55842 3.3108,-0.008 5.0504,0.36867 7.39817,1.60384 1.32502,0.69709 3.61427,2.37454 3.61047,2.64556 -0.002,0.081 -0.95389,1.3454 -2.11724,2.80984 l -2.11516,2.66261 -0.63545,-0.41819 c -2.03471,-1.33906 -3.80978,-1.8837 -6.14079,-1.88413 -2.20129,-4e-4 -3.40331,0.77031 -3.40331,2.18214 0,1.16802 1.04153,1.99987 3.7036,2.95798 3.20325,1.15288 6.61226,2.60303 7.57747,3.22335 2.70492,1.73843 4.13392,4.44587 4.13392,7.83229 0,4.83159 -3.14969,8.61599 -8.41144,10.1065 -1.46988,0.41637 -5.13596,0.68717 -6.50306,0.48037 z M 68.661471,118.61065 V 101.9945 h 10.610313 c 8.341667,0 10.61557,0.0535 10.634918,0.25024 0.08981,0.91363 0.123347,5.95717 0.0426,6.40623 l -0.09901,0.55053 H 83.56007 77.269844 v 2.70263 2.70262 h 5.405254 5.405252 v 3.6035 3.60351 h -5.405252 -5.405254 v 3.10301 3.10302 h 6.606419 6.606422 v 3.6035 3.6035 H 79.572076 68.661471 Z m 23.222576,0 V 101.9945 h 10.710413 10.7104 v 3.6035 3.6035 h -6.30612 -6.30614 v 2.70263 2.70262 h 5.40526 5.40525 v 3.6035 3.60351 h -5.40525 -5.40526 v 3.10301 3.10302 h 6.60642 6.60642 v 3.6035 3.6035 H 102.89475 91.884047 Z m 23.422753,-0.0194 v -16.63566 l 6.95677,0.0974 c 7.51295,0.10518 8.26569,0.19341 11.12627,1.30418 4.08972,1.58804 6.92717,4.90227 8.17438,9.54793 0.36391,1.3555 0.43293,2.18592 0.44927,5.40525 0.0225,4.43609 -0.30736,6.18523 -1.7178,9.10885 -1.49918,3.10757 -4.79818,5.82538 -8.37273,6.89768 -2.20151,0.66043 -5.12366,0.90197 -10.96066,0.906 l -5.6555,0.004 v -16.63559 z m 12.10478,9.32191 c 2.54978,-0.66413 4.07685,-1.95803 5.00409,-4.23997 1.21562,-2.99165 1.11576,-8.26447 -0.20623,-10.88964 -1.27483,-2.53151 -3.51875,-3.77074 -6.84285,-3.77905 l -1.25122,-0.003 v 9.60934 9.60934 h 1.05901 c 0.58245,0 1.58919,-0.1381 2.2372,-0.30689 z m 66.20599,-32.531884 c -5.91163,-0.805024 -9.45021,-5.110269 -9.44086,-11.486347 0.005,-3.398358 0.88124,-5.982816 2.75454,-8.12429 3.73359,-4.26805 10.93727,-4.991047 15.00348,-1.505826 l 0.84454,0.723872 -1.53685,1.870028 -1.53685,1.870026 -0.61973,-0.472692 c -2.43656,-1.858461 -6.05466,-1.390119 -7.65317,0.990665 -1.18632,1.766879 -1.56302,4.247211 -1.02854,6.772429 0.59998,2.834728 2.48285,4.349893 5.46875,4.400774 1.93564,0.03298 2.1143,-0.139862 2.1143,-2.045677 v -1.594513 h -1.70166 -1.70165 V 84.37739 81.975054 h 4.3074 4.30739 l -0.0533,5.455303 -0.0533,5.455303 -1.26256,0.846288 c -0.69442,0.465459 -1.82052,1.017848 -2.50244,1.22753 -1.5217,0.467901 -4.0172,0.652258 -5.70957,0.421798 z M 6.8013401,83.776791 V 72.365698 h 7.3071019 7.307102 v 2.502433 2.502432 h -4.411793 -4.411792 l 0.05758,1.8518 0.05758,1.8518 3.653547,0.05456 3.653555,0.05456 v 2.397818 2.397819 h -3.703598 -3.703599 v 2.102044 2.102043 h 4.504374 4.504383 v 2.502433 2.502433 H 14.208576 6.8013779 Z M 26.83326,84.03137 c -1.805815,-6.140852 -3.322751,-11.277795 -3.370957,-11.415429 -0.06764,-0.193232 0.622413,-0.250243 3.029069,-0.250243 h 3.116718 l 0.200585,0.75073 c 0.197037,0.737457 2.836489,11.871996 3.535496,14.914498 0.196046,0.853329 0.42126,1.551508 0.500473,1.551508 0.07921,0 0.388437,-1.058529 0.687181,-2.352287 0.298737,-1.293758 1.191634,-5.145001 1.984216,-8.558319 l 1.44106,-6.206032 3.040214,-0.05526 c 1.672124,-0.03039 3.036076,-0.03039 3.031006,0 -0.0053,0.03039 -1.51671,5.145211 -3.359214,11.366258 l -3.349998,11.310995 -3.601271,0.05439 -3.601263,0.05439 z M 46.03948,83.776791 V 72.365698 h 7.307104 7.307103 v 2.502433 2.502432 H 56.241892 51.8301 l 0.05758,1.8518 0.05758,1.8518 3.653552,0.05456 3.653552,0.05456 v 2.397818 2.397819 h -3.703601 -3.703599 v 2.102044 2.102043 h 4.504378 4.504378 v 2.502433 2.502433 h -7.4072 -7.407202 z m 19.418877,-0.02077 V 72.324166 l 5.5554,0.09238 c 4.32217,0.07187 5.81229,0.165153 6.712625,0.420201 2.422687,0.686303 3.823076,1.730222 4.690442,3.496487 0.512966,1.04458 0.558561,1.325354 0.558561,3.439663 0,2.149157 -0.03903,2.379317 -0.586987,3.461461 -0.54507,1.076441 -1.743365,2.404307 -2.60468,2.886322 -0.333975,0.186901 -0.150607,0.59027 2.06319,4.538528 1.336357,2.383365 2.429741,4.377331 2.429741,4.431033 0,0.05371 -1.463922,0.0954 -3.253162,0.09266 l -3.253162,-0.005 -2.001946,-3.848763 -2.001946,-3.848763 -1.151119,-0.06004 -1.151119,-0.06004 v 3.913786 3.913785 h -3.002919 -3.002919 v -11.43185 z m 9.820916,-1.180252 c 0.391633,-0.108796 0.971447,-0.468551 1.288475,-0.799457 0.472019,-0.492681 0.592135,-0.818974 0.66321,-1.801593 0.153043,-2.115789 -0.616185,-2.701596 -3.845557,-2.928599 l -1.921206,-0.135043 v 2.93237 2.93237 l 1.551508,-0.0012 c 0.85333,-6.01e-4 1.871936,-0.09013 2.26357,-0.198928 z m 15.603798,8.650427 V 87.264511 L 87.47976,79.872992 c -1.871816,-4.065336 -3.403303,-7.417571 -3.403303,-7.449409 0,-0.03184 1.420488,-0.05789 3.156646,-0.05789 h 3.156646 l 1.674144,4.904768 c 0.920786,2.697622 1.738723,4.904767 1.817641,4.904767 0.07891,0 0.882705,-2.096923 1.786202,-4.659833 0.903505,-2.562907 1.712354,-4.772483 1.797446,-4.910169 0.115252,-0.18648 0.921582,-0.236192 3.160948,-0.194887 l 3.00623,0.05545 -3.3635,7.307102 -3.363494,7.307104 -0.0082,4.05394 -0.0082,4.053941 h -3.00292 -3.002919 z m 20.219649,-4.946973 v -8.90866 h -3.00292 -3.00291 v -2.502432 -2.502433 h 8.90865 8.90866 v 2.502433 2.502432 h -3.00292 -3.00292 v 8.90866 8.90866 h -2.90282 -2.90282 z M 126.5177,83.776791 V 72.365698 h 2.90283 2.90282 v 4.304184 4.304184 h 3.50341 3.5034 v -4.304184 -4.304184 h 2.90282 2.90282 v 11.411093 11.411092 h -2.90282 -2.90282 V 90.57868 85.969476 l -3.45336,0.05478 -3.45335,0.05477 -0.0538,4.554427 -0.0538,4.554428 h -2.89906 -2.89906 z m 23.82316,0 V 72.365698 h 1.00097 c 0.6184,0 1.00098,-0.08761 1.00098,-0.229236 0,-0.718766 -1.4857,-3.181946 -2.5526,-4.232009 l -1.17659,-1.158035 -1.29306,0.6051 c -1.77875,0.832373 -2.88806,0.960968 -4.00576,0.464358 -1.13257,-0.503214 -2.03954,-1.275619 -2.80608,-2.38975 -0.7152,-1.039516 -0.63495,-1.233253 0.81081,-1.957292 2.55148,-1.277789 4.39338,-1.068166 6.11851,0.696329 0.55053,0.563099 1.81819,1.824235 2.817,2.802528 0.99881,0.978291 1.98774,2.097571 2.19761,2.48729 0.20988,0.389716 0.44328,0.708577 0.51867,0.708577 0.0754,0 0.20024,-0.382873 0.27744,-0.850828 0.24508,-1.485397 1.11541,-3.997271 1.99425,-5.755594 0.52885,-1.058107 0.94064,-2.231636 1.08885,-3.103017 0.1311,-0.770749 0.45025,-1.867579 0.70924,-2.437399 0.57708,-1.269658 1.92413,-2.76565 2.97138,-3.299917 0.95556,-0.487493 3.10921,-0.961038 4.39206,-0.965727 0.94244,-0.0035 0.95092,0.0024 0.95092,0.655145 0,0.362241 -0.139,1.195551 -0.30888,1.851799 -0.94183,3.638325 -2.88492,5.342536 -6.69311,5.870269 -0.80358,0.111358 -1.52888,0.275708 -1.61178,0.365221 -0.32889,0.355125 -1.41102,3.101931 -1.88571,4.786527 -0.27624,0.980346 -0.57684,2.525673 -0.66799,3.434056 l -0.16573,1.651605 h 1.16222 1.16222 v 11.411093 11.411092 h -3.00292 -3.00292 z m 11.2109,0 V 72.365698 h 3.00217 3.00218 l 2.57037,5.155011 c 1.41369,2.835256 3.05811,6.32615 3.65428,7.757541 1.17779,2.827841 1.41304,2.842795 0.98064,0.06233 -0.1252,-0.80503 -0.27723,-4.05371 -0.33785,-7.219287 l -0.1102,-5.755595 h 2.82816 2.82815 V 83.77679 95.187883 h -3.06411 -3.06414 l -2.82371,-5.755595 c -1.55305,-3.165578 -3.16137,-6.592418 -3.57405,-7.615203 -0.41268,-1.022782 -0.82613,-1.906453 -0.91877,-1.963711 -0.21533,-0.133081 -0.21843,-0.190543 0.1359,2.522054 0.1654,1.266231 0.35871,4.667036 0.42957,7.557346 l 0.12886,5.255109 h -2.83373 -2.83372 z"
       id="path414" /></g></svg>
