<?xml version="1.0" encoding="UTF-8" standalone="no"?>
<!-- Created with Inkscape (http://www.inkscape.org/) -->

<svg
   width="200mm"
   height="200mm"
   viewBox="0 0 200 200"
   version="1.1"
   id="svg5"
   xml:space="preserve"
   inkscape:version="1.2.2 (b0a84865, 2022-12-01)"
   sodipodi:docname="lock.svg"
   xmlns:inkscape="http://www.inkscape.org/namespaces/inkscape"
   xmlns:sodipodi="http://sodipodi.sourceforge.net/DTD/sodipodi-0.dtd"
   xmlns="http://www.w3.org/2000/svg"
   xmlns:svg="http://www.w3.org/2000/svg"><sodipodi:namedview
     id="namedview7"
     pagecolor="#505050"
     bordercolor="#eeeeee"
     borderopacity="1"
     inkscape:showpageshadow="0"
     inkscape:pageopacity="0"
     inkscape:pagecheckerboard="0"
     inkscape:deskcolor="#505050"
     inkscape:document-units="mm"
     showgrid="false"
     inkscape:zoom="0.82624845"
     inkscape:cx="378.82068"
     inkscape:cy="370.9538"
     inkscape:window-width="1344"
     inkscape:window-height="703"
     inkscape:window-x="1602"
     inkscape:window-y="176"
     inkscape:window-maximized="0"
     inkscape:current-layer="layer1" /><defs
     id="defs2"><filter
       inkscape:collect="always"
       style="color-interpolation-filters:sRGB"
       id="filter11783"
       x="-0.16759741"
       y="-0.11647429"
       width="1.3351948"
       height="1.2329486"><feGaussianBlur
         inkscape:collect="always"
         stdDeviation="6.2841866"
         id="feGaussianBlur11785" /></filter></defs><g
     inkscape:label="Layer 1"
     inkscape:groupmode="layer"
     id="layer1"><path
       style="fill:#000000;stroke-width:0.199219;stroke:none;fill-opacity:1;filter:url(#filter11783)"
       d="m 68.483656,164.57051 c -3.75326,-0.4332 -7.76347,-2.60529 -9.92059,-5.37338 -1.24096,-1.59244 -2.57225,-4.22352 -3.0934,-6.11363 l -0.46452,-1.68469 v -23.28837 c 0,-24.76654 -0.0156,-24.33061 0.95509,-26.65775 1.19549,-2.866025 3.92936,-5.775995 6.6317,-7.058885 3.07677,-1.46064 0.71043,-1.37856 38.025204,-1.31896 l 33.48467,0.0535 1.30159,0.46288 c 0.71587,0.25459 1.82132,0.7361 2.45655,1.07004 2.62112,1.37789 5.38781,4.69594 6.48924,7.782435 l 0.56583,1.58558 0.056,23.28837 c 0.0616,25.61226 0.0986,24.72564 -1.15916,27.78477 -2.04804,4.98121 -7.09144,8.75995 -12.64403,9.47349 -1.77104,0.22759 -60.709624,0.22253 -62.684214,-0.005 z m 39.285974,-18.20373 c 0,-0.20589 -0.39967,-2.01198 -0.88815,-4.01353 -0.85583,-3.50677 -2.82329,-11.70936 -3.01963,-12.58923 -0.0778,-0.34859 0.0986,-0.53585 0.95523,-1.01439 2.61317,-1.45972 4.1461,-4.22552 4.15164,-7.49063 0.003,-1.84318 -0.44061,-3.25694 -1.53542,-4.89183 -3.42436,-5.11368 -11.357534,-5.15514 -14.858064,-0.0777 -1.07527,1.55966 -1.49286,2.99577 -1.50659,5.18126 -0.0116,1.8391 0.0347,2.0812 0.64243,3.35814 0.86685,1.82156 1.79848,2.91062 3.24679,3.79543 0.97023,0.59275 1.1732,0.8061 1.09173,1.14765 -0.12567,0.52681 -1.30919,5.7061 -2.11132,9.23938 -0.33408,1.47163 -0.87548,3.7282 -1.20311,5.0146 -0.32762,1.2864 -0.54282,2.42357 -0.47821,2.52704 0.0708,0.11342 3.17416,0.18812 7.815074,0.18812 7.413,0 7.6976,-0.0139 7.6976,-0.37435 z M 64.923276,88.420005 c -0.27203,-0.13883 -0.70516,-0.56167 -0.9625,-0.93964 l -0.46791,-0.68722 0.0664,-10.21083 c 0.064,-9.83868 0.0835,-10.28668 0.53329,-12.29192 0.99325,-4.42806 2.35519,-7.793473 4.73806,-11.707968 1.66697,-2.738426 3.12029,-4.534433 5.5253,-6.82815 7.84807,-7.484869 17.93961,-11.155488 28.597034,-10.401678 3.26486,0.230932 4.26177,0.403622 7.01929,1.215929 6.21736,1.831508 11.50577,5.014216 16.14488,9.716425 4.59903,4.661579 7.32991,9.303111 9.08026,15.433262 1.30899,4.58434 1.40741,5.69482 1.40741,15.88004 0,8.34267 -0.0266,9.04583 -0.36741,9.6863 -0.71375,1.3416 -1.0346,1.39975 -7.38853,1.33914 l -5.65336,-0.0539 -0.65434,-0.64768 -0.65435,-0.64767 -0.1141,-9.65867 c -0.10616,-8.98714 -0.14348,-9.7689 -0.53682,-11.24426 -1.07656,-4.03799 -3.11781,-7.50253 -6.25281,-10.612669 -2.84794,-2.825374 -5.63245,-4.481585 -9.53628,-5.672134 -1.67041,-0.509424 -2.01474,-0.543531 -5.486781,-0.543531 -3.478153,0 -3.814663,0.03349 -5.506733,0.548018 -0.99121,0.301414 -2.61319,0.929196 -3.60441,1.395083 -5.66266,2.661523 -10.38769,8.470043 -12.04505,14.807083 -0.53825,2.05804 -0.53892,2.06981 -0.6547,11.52065 l -0.1159,9.46051 -0.65435,0.64764 -0.65434,0.64763 -5.65337,0.0513 c -4.27128,0.0388 -5.77428,-0.0104 -6.14796,-0.20108 z"
       id="path11550" /><path
       style="fill:#ffffff;stroke-width:0.199219;fill-opacity:1"
       d="m 68.483653,164.57052 c -3.75326,-0.4332 -7.76347,-2.60529 -9.92059,-5.37338 -1.24096,-1.59244 -2.57225,-4.22352 -3.0934,-6.11363 l -0.46452,-1.68469 v -23.28837 c 0,-24.76654 -0.0156,-24.33061 0.95509,-26.65775 1.19549,-2.866034 3.92936,-5.776004 6.6317,-7.058894 3.07677,-1.46064 0.71043,-1.37856 38.025207,-1.31896 l 33.48467,0.0535 1.30159,0.46288 c 0.71587,0.25459 1.82132,0.7361 2.45655,1.07004 2.62112,1.37789 5.38781,4.69594 6.48924,7.782444 l 0.56583,1.58558 0.056,23.28837 c 0.0616,25.61226 0.0986,24.72564 -1.15916,27.78477 -2.04804,4.98121 -7.09144,8.75995 -12.64403,9.47349 -1.77104,0.22759 -60.709627,0.22253 -62.684217,-0.005 z m 39.285977,-18.20373 c 0,-0.20589 -0.39967,-2.01198 -0.88815,-4.01353 -0.85583,-3.50677 -2.82329,-11.70936 -3.01963,-12.58923 -0.0778,-0.34859 0.0986,-0.53585 0.95523,-1.01439 2.61317,-1.45972 4.1461,-4.22552 4.15164,-7.49063 0.003,-1.84318 -0.44061,-3.25694 -1.53542,-4.89183 -3.42436,-5.11368 -11.357536,-5.15514 -14.858066,-0.0777 -1.07527,1.55966 -1.49286,2.99577 -1.50659,5.18126 -0.0116,1.8391 0.0347,2.0812 0.64243,3.35814 0.86685,1.82156 1.79848,2.91062 3.24679,3.79543 0.97023,0.59275 1.1732,0.8061 1.09173,1.14765 -0.12567,0.52681 -1.30919,5.7061 -2.11132,9.23938 -0.33408,1.47163 -0.87548,3.7282 -1.20311,5.0146 -0.32762,1.2864 -0.54282,2.42357 -0.47821,2.52704 0.0708,0.11342 3.17416,0.18812 7.815076,0.18812 7.413,0 7.6976,-0.0139 7.6976,-0.37435 z M 64.923273,88.420006 c -0.27203,-0.13883 -0.70516,-0.56167 -0.9625,-0.93964 l -0.46791,-0.68722 0.0664,-10.21083 c 0.064,-9.83868 0.0835,-10.28668 0.53329,-12.29192 0.99325,-4.42806 2.35519,-7.79347 4.73806,-11.70797 1.66697,-2.73842 3.12029,-4.53443 5.5253,-6.82815 7.848071,-7.48487 17.939611,-11.15549 28.597037,-10.40168 3.26486,0.23094 4.26177,0.40363 7.01929,1.21593 6.21736,1.83151 11.50577,5.01422 16.14488,9.71643 4.59903,4.66158 7.32991,9.30311 9.08026,15.43326 1.30899,4.58434 1.40741,5.69482 1.40741,15.88004 0,8.34267 -0.0266,9.04583 -0.36741,9.6863 -0.71375,1.3416 -1.0346,1.39975 -7.38853,1.33914 l -5.65336,-0.0539 -0.65434,-0.64768 -0.65435,-0.64767 -0.1141,-9.65867 c -0.10616,-8.98714 -0.14348,-9.7689 -0.53682,-11.24426 -1.07656,-4.03799 -3.11781,-7.50253 -6.25281,-10.61267 -2.84794,-2.82537 -5.63245,-4.48158 -9.53628,-5.67213 -1.67041,-0.50943 -2.01474,-0.54353 -5.486783,-0.54353 -3.478153,0 -3.814663,0.0335 -5.506733,0.54801 -0.99121,0.30142 -2.61319,0.9292 -3.60441,1.39509 -5.66266,2.66152 -10.387691,8.47004 -12.045051,14.80708 -0.53825,2.05804 -0.53892,2.06981 -0.6547,11.52065 l -0.1159,9.46051 -0.65435,0.64764 -0.65434,0.64763 -5.65337,0.0513 c -4.27128,0.0388 -5.77428,-0.0104 -6.14796,-0.20108 z"
       id="path11550-9" /></g></svg>
