<?xml version="1.0" encoding="UTF-8" standalone="no"?>
<!-- Created with Inkscape (http://www.inkscape.org/) -->

<svg
   width="200mm"
   height="200mm"
   viewBox="0 0 200 200"
   version="1.1"
   id="svg5"
   xml:space="preserve"
   inkscape:version="1.2.2 (b0a84865, 2022-12-01)"
   sodipodi:docname="logo.svg"
   xmlns:inkscape="http://www.inkscape.org/namespaces/inkscape"
   xmlns:sodipodi="http://sodipodi.sourceforge.net/DTD/sodipodi-0.dtd"
   xmlns="http://www.w3.org/2000/svg"
   xmlns:svg="http://www.w3.org/2000/svg"><sodipodi:namedview
     id="namedview7"
     pagecolor="#505050"
     bordercolor="#eeeeee"
     borderopacity="1"
     inkscape:showpageshadow="0"
     inkscape:pageopacity="0"
     inkscape:pagecheckerboard="0"
     inkscape:deskcolor="#505050"
     inkscape:document-units="mm"
     showgrid="false"
     inkscape:zoom="0.7500982"
     inkscape:cx="434.60976"
     inkscape:cy="507.93349"
     inkscape:window-width="1920"
     inkscape:window-height="992"
     inkscape:window-x="1344"
     inkscape:window-y="25"
     inkscape:window-maximized="0"
     inkscape:current-layer="layer1" /><defs
     id="defs2"><filter
       inkscape:collect="always"
       style="color-interpolation-filters:sRGB"
       id="filter2051"
       x="-0.4455655"
       y="-0.32541904"
       width="1.891131"
       height="1.6508381"><feGaussianBlur
         inkscape:collect="always"
         stdDeviation="16.831403"
         id="feGaussianBlur2053" /></filter></defs><g
     inkscape:label="Layer 1"
     inkscape:groupmode="layer"
     id="layer1"><path
       style="mix-blend-mode:normal;fill:#ffffff;fill-opacity:1;stroke-width:0.169683;filter:url(#filter2051);opacity:0.87323944"
       d="m 124.07098,161.56398 c -4.26494,-1.55702 -9.87202,-4.62597 -19.95473,-10.92192 -21.058367,-13.14949 -35.347047,-17.07692 -48.529257,-13.33888 -1.17959,0.33449 -1.17143,0.37696 -0.26306,-1.36948 3.85456,-7.41081 11.26666,-12.11996 19.93075,-12.66265 l 1.7985,-0.11265 0.98274,-2.94169 c 0.54051,-1.61794 0.98371,-2.99776 0.98489,-3.06628 10e-4,-0.0685 -4.04647,-0.14417 -8.99479,-0.1681 l -8.99693,-0.0435 1.64966,-1.84907 c 0.90731,-1.01698 3.0097,-3.35772 4.67198,-5.20164 1.66228,-1.84392 4.21704,-4.68515 5.67724,-6.31383 1.46021,-1.62869 3.6184,-4.021221 4.79599,-5.316731 3.06674,-3.37386 7.36527,-8.278124 7.36527,-8.403175 0,-0.197873 -1.7837,0.124009 -3.15879,0.570021 -1.57909,0.512184 -2.52026,1.298594 -5.4914,4.588414 -3.51987,3.89744 -3.50975,3.8875 -3.63101,3.56445 -0.0614,-0.16345 -1.25748,-2.9765 -2.65805,-6.25121 -4.48037,-10.475747 -5.26459,-15.483226 -3.73255,-23.83311 4.46475,-24.33357 34.697837,-36.840758 56.485577,-23.367629 l 0.90179,0.557651 -3.62791,3.353332 c -1.99534,1.844331 -4.22056,3.882834 -4.94493,4.530007 -1.94723,1.739708 -8.04815,7.328255 -11.46514,10.502271 -10.901897,10.126701 -10.615477,9.814705 -10.015847,10.910313 0.87276,1.594625 1.72955,1.362731 4.47587,-1.211409 9.903057,-9.282176 14.597547,-13.646149 19.940547,-18.536606 13.43685,-12.298771 14.47206,-13.360553 15.76168,-16.166247 l 0.52001,-1.131325 0.5137,0.588339 c 3.44998,3.95113 4.4766,8.604425 2.62381,11.892849 -0.4904,0.870412 -0.49941,0.869859 0.91378,0.05609 2.27586,-1.310541 3.53765,-3.58135 3.19147,-5.743582 -0.0432,-0.269533 -0.11507,-0.71699 -0.15982,-0.99435 -0.12169,-0.754217 0.13596,-0.618015 1.03338,0.546315 5.1813,6.722212 2.46593,16.38856 -5.19133,18.480409 -1.76918,0.483312 -1.88255,-0.921223 0.89977,11.146651 1.54374,6.695846 1.48861,6.437039 1.42591,6.693717 -0.0429,0.175344 -0.46238,0.07794 -1.76901,-0.4107 -2.17685,-0.814088 -2.00559,-0.842646 -2.80531,0.467823 l -0.68323,1.119591 0.52317,1.023638 c 0.28775,0.563008 1.99742,3.746818 3.79929,7.075135 4.42421,8.172217 4.41083,8.469607 -0.43518,9.672877 -1.04315,0.25902 -1.97538,0.548201 -2.07159,0.642631 -0.25751,0.25271 -0.14719,3.00836 0.14821,3.70219 l 0.25109,0.58977 -0.40105,0.76491 -0.40106,0.76491 -1.08896,0.28856 c -1.55616,0.41237 -1.84633,0.95678 -0.51801,0.97189 0.911,0.0103 1.22759,0.20594 1.55807,0.96258 0.44951,1.02914 0.41694,1.24018 -0.29385,1.90439 -1.40904,1.31668 -1.47251,2.65568 -0.2372,5.00401 3.2857,6.24616 -0.55006,9.62448 -9.50565,8.37201 -2.69073,-0.37631 -7.46126,-1.11785 -7.8136,-1.21457 -0.24825,-0.0681 -0.27496,0.23451 -0.25693,2.91193 0.0226,3.35515 -0.0511,3.72872 -1.38197,7.00251 l -0.74362,1.82926 2.7067,2.71116 c 7.47825,7.49055 10.08246,15.14989 8.06478,23.71963 -0.45447,1.93027 -0.28269,1.85153 -2.37386,1.0881 z m -14.55924,-13.58494 c 0,-0.0779 -0.37796,-0.66419 -0.83989,-1.30275 -3.26809,-4.51766 -10.277467,-8.51286 -16.631207,-9.47945 -0.70656,-0.10748 -1.41953,-0.23273 -1.58439,-0.27832 -0.80017,-0.22126 -0.16667,0.27768 0.77078,0.60707 2.89521,1.01729 11.067697,5.72469 16.400567,9.44679 1.62634,1.13513 1.88414,1.27286 1.88414,1.00666 z m -8.91606,-10.54981 c -5.551497,-5.69694 -18.140857,-9.31227 -26.026137,-7.47403 -2.81765,0.65687 -2.8484,0.76552 -0.25773,0.91073 7.20264,0.40371 15.37546,2.52848 24.58024,6.39034 2.213617,0.92874 2.464977,0.95425 1.703627,0.17296 z m 4.52937,-3.69999 c -3.6433,-6.03358 -7.920497,-17.93467 -9.855547,-27.42254 -0.26185,-1.28392 -0.16863,-1.28486 -2.08469,0.0211 -2.19509,1.49612 -4.39791,2.69055 -6.54782,3.55041 -2.26055,0.90412 -1.96107,0.50175 -2.81546,3.78274 -0.87679,3.36703 -1.89367,6.87747 -2.47938,8.55929 -0.23888,0.68589 -0.41521,1.2649 -0.39186,1.28668 0.0234,0.0218 0.96739,0.19395 2.09787,0.3826 7.53456,1.25727 15.37251,4.96216 21.496297,10.16101 1.56746,1.33072 1.57545,1.3263 0.58059,-0.32127 z m 25.79735,-13.7464 c 0,-0.70209 -4.17459,-28.760891 -4.35616,-29.279267 -0.0347,-0.09913 -0.74525,-0.356107 -1.57894,-0.571063 -7.99749,-2.062023 -13.88723,-6.111154 -16.51832,-11.356175 -0.39977,-0.796941 -0.62404,-1.073524 -0.82381,-1.01597 -0.15098,0.04352 -0.82416,0.129582 -1.49595,0.19131 -1.74863,0.160668 -1.75816,0.173114 -1.17103,1.530502 1.83185,4.234985 6.44574,8.668349 11.69423,11.236644 1.79011,0.875978 5.69038,2.266208 6.35781,2.266208 0.48181,0 0.44556,-0.1481 1.19614,4.88628 2.40506,16.131501 3.0662,20.181201 3.34032,20.460791 0.69462,0.70844 3.35572,2.01749 3.35571,1.65074 z m -14.04363,-7.11272 c -2.14839,-3.78071 -5.43229,-6.29229 -11.66295,-8.92 l -0.78455,-0.33088 -0.19352,-1.07267 c -0.40295,-2.23345 -2.95737,-14.376527 -3.14276,-14.939865 -2.356477,-7.160401 -12.992347,-5.633114 -13.008197,1.867943 -0.0132,6.251881 6.13994,12.473992 11.32648,11.453402 1.184767,-0.23314 1.075227,-0.40349 1.694017,2.63445 0.29048,1.42608 0.54678,2.60638 0.56955,2.62287 0.0228,0.0165 0.6195,0.24266 1.32605,0.50257 2.6259,0.966 9.25268,4.30879 13.26635,6.69204 1.25628,0.74596 1.3016,0.70804 0.60953,-0.50986 z M 96.568493,97.291959 c -3.3569,-1.53404 -4.10799,-5.09827 -1.31625,-6.24615 0.70565,-0.290146 0.70129,-0.575915 -0.0202,-1.326706 -0.94739,-0.98583 -2.54224,-0.707182 -3.34233,0.583973 -0.56393,0.910043 -0.80341,-1.183493 -0.2566,-2.24323 1.65406,-3.205648 5.78356,-2.072671 6.66818,1.829499 l 0.28115,1.240184 -0.64006,1.27126 c -0.75257,1.49473 -0.69992,1.78368 0.47245,2.59296 1.111,0.76691 1.11095,0.76685 1.24069,1.61588 0.18453,1.20764 -1.2457,1.52376 -3.087,0.68233 z M 121.41414,111.1815 c -0.0434,-0.25424 -0.3128,-2.0886 -0.59856,-4.07634 -0.28576,-1.98775 -0.73002,-4.97446 -0.98725,-6.63715 l -0.46769,-3.023071 -1.96978,-0.687 c -2.36373,-0.8244 -4.93478,-2.09666 -6.76885,-3.34949 -0.74065,-0.50594 -1.37431,-0.89273 -1.40812,-0.85954 -0.0338,0.0332 0.4459,2.9517 1.06604,6.48558 0.62015,3.533881 1.07813,6.578001 1.01775,6.764711 -0.073,0.22579 -0.0463,0.30096 0.0798,0.22445 0.11452,-0.0695 0.18964,0.0182 0.18964,0.22126 0,0.26761 0.72578,0.70425 3.55417,2.13824 1.9548,0.99109 4.13226,2.12629 4.83881,2.52268 1.53362,0.86041 1.55462,0.86438 1.454,0.27567 z m 13.16671,-14.346561 c 3.98554,-1.08727 3.82144,-0.57179 1.52393,-4.78705 -0.95366,-1.74968 -1.82849,-3.389261 -1.94408,-3.643506 -0.30862,-0.678872 -0.35075,-0.626349 -1.07931,1.345755 -0.36697,0.993333 -1.04141,2.808561 -1.49875,4.033821 -1.40425,3.76216 -1.02464,4.14843 2.99821,3.05098 z m -58.252107,-5.81224 c 0.30423,-0.432093 0.90433,-1.20744 1.33355,-1.722988 l 0.78039,-0.937348 -0.31566,-1.428824 c -3.00424,-13.598451 5.62132,-27.032396 18.62304,-29.004601 2.3613,-0.358181 6.924987,-0.276407 8.130307,0.145681 l 0.76413,0.267589 1.12001,-1.040429 c 2.89832,-2.692368 8.2693,-7.867807 8.20956,-7.910676 -0.0368,-0.02638 -0.87617,-0.289033 -1.86534,-0.583652 -24.920977,-7.422584 -45.351917,13.856534 -38.422117,40.017175 0.87805,3.314693 0.86667,3.299473 1.64213,2.198073 z m 57.082417,-16.8225 c -0.0657,-0.43915 -0.46301,-2.31133 -0.88296,-4.160395 -0.41994,-1.849065 -1.14736,-5.177382 -1.61648,-7.39626 -1.20981,-5.722147 -1.90255,-8.860219 -2.03503,-9.218521 -0.0956,-0.258682 -0.43582,-0.01073 -2.07549,1.512871 -1.0786,1.002244 -3.92621,3.598724 -6.32804,5.769953 -2.40181,2.171231 -6.04701,5.499548 -8.10041,7.39626 -2.05341,1.896714 -4.54231,4.157809 -5.5309,5.024659 -2.11449,1.854111 -2.11093,1.776519 -0.0627,1.361365 7.59397,-1.539193 16.12363,-1.511182 24.1432,0.0793 2.79977,0.555262 2.63078,0.580332 2.48876,-0.369227 z m 3.72574,-13.835476 c 3.8416,-1.246865 5.8702,-5.088168 4.36703,-8.269253 -0.56831,-1.202658 -0.55722,-1.206282 -0.58119,0.189913 -0.0513,2.986738 -1.69452,5.824745 -4.45157,7.688253 -1.30625,0.882901 -1.14371,0.978379 0.66573,0.391087 z"
       id="path1279-1" /><path
       style="fill:#ffffff;fill-opacity:1;stroke-width:0.169683"
       d="m 124.07098,161.56398 c -4.26494,-1.55702 -9.87202,-4.62597 -19.95473,-10.92192 -21.058371,-13.14949 -35.34705,-17.07692 -48.529255,-13.33888 -1.179589,0.33449 -1.171432,0.37696 -0.263062,-1.36948 3.854558,-7.41081 11.26666,-12.11996 19.930743,-12.66265 l 1.798503,-0.11265 0.98275,-2.94169 c 0.54051,-1.61794 0.98371,-2.99776 0.98488,-3.06628 0.001,-0.0685 -4.046473,-0.14417 -8.994783,-0.1681 l -8.996936,-0.0435 1.64966,-1.84907 c 0.907313,-1.01698 3.009703,-3.35772 4.671981,-5.20164 1.662275,-1.84392 4.217035,-4.68515 5.677245,-6.31383 1.4602,-1.62869 3.618403,-4.021221 4.795983,-5.316731 3.06675,-3.37386 7.36528,-8.27813 7.36528,-8.40318 0,-0.19787 -1.7837,0.12401 -3.15879,0.57002 -1.57909,0.51219 -2.52027,1.2986 -5.4914,4.58842 -3.519883,3.89744 -3.509763,3.8875 -3.631023,3.56445 -0.0614,-0.16345 -1.25747,-2.9765 -2.65804,-6.25121 -4.480371,-10.47575 -5.264598,-15.48323 -3.732553,-23.83311 4.464753,-24.333573 34.697837,-36.840761 56.485577,-23.367632 l 0.90179,0.557651 -3.62791,3.353332 c -1.99534,1.844331 -4.22056,3.882834 -4.94493,4.530007 -1.94723,1.739708 -8.04815,7.328255 -11.46514,10.502271 -10.901901,10.126701 -10.615481,9.814701 -10.015841,10.910311 0.87275,1.59463 1.72954,1.36273 4.47586,-1.21141 9.903061,-9.282173 14.597551,-13.646146 19.940551,-18.536603 13.43684,-12.298771 14.47205,-13.360553 15.76167,-16.166247 l 0.52002,-1.131325 0.5137,0.588339 c 3.44998,3.95113 4.47659,8.604425 2.6238,11.892849 -0.49039,0.870412 -0.49941,0.869859 0.91378,0.05609 2.27586,-1.310541 3.53766,-3.58135 3.19148,-5.743582 -0.0432,-0.269533 -0.11507,-0.71699 -0.15982,-0.99435 -0.12169,-0.754217 0.13596,-0.618015 1.03338,0.546315 5.18129,6.722212 2.46593,16.38856 -5.19133,18.480409 -1.76918,0.483312 -1.88255,-0.921223 0.89977,11.146655 1.54374,6.69584 1.4886,6.43704 1.4259,6.69371 -0.0429,0.17535 -0.46238,0.0779 -1.76901,-0.4107 -2.17685,-0.81408 -2.00559,-0.84264 -2.80531,0.46783 l -0.68323,1.11959 0.52317,1.02364 c 0.28775,0.563 1.99742,3.74681 3.79929,7.07513 4.42421,8.17222 4.41083,8.46961 -0.43518,9.67288 -1.04315,0.25902 -1.97538,0.548201 -2.07159,0.642631 -0.2575,0.25271 -0.14718,3.00836 0.14822,3.70219 l 0.25109,0.58977 -0.40105,0.76491 -0.40106,0.76491 -1.08896,0.28856 c -1.55616,0.41237 -1.84633,0.95678 -0.51801,0.97189 0.911,0.0103 1.22759,0.20594 1.55807,0.96258 0.44951,1.02914 0.41694,1.24018 -0.29385,1.90439 -1.40904,1.31668 -1.47251,2.65568 -0.2372,5.00401 3.2857,6.24616 -0.55006,9.62448 -9.50564,8.37201 -2.69073,-0.37631 -7.46126,-1.11785 -7.8136,-1.21457 -0.24825,-0.0681 -0.27496,0.23451 -0.25693,2.91193 0.0226,3.35515 -0.0511,3.72872 -1.38197,7.00251 l -0.74362,1.82926 2.7067,2.71116 c 7.47825,7.49055 10.08246,15.14989 8.06478,23.71963 -0.45447,1.93027 -0.28269,1.85153 -2.37387,1.0881 z m -14.55924,-13.58494 c 0,-0.0779 -0.37796,-0.66419 -0.83989,-1.30275 -3.26809,-4.51766 -10.277471,-8.51286 -16.631211,-9.47945 -0.70655,-0.10748 -1.41953,-0.23273 -1.58439,-0.27832 -0.80016,-0.22126 -0.16666,0.27768 0.77079,0.60707 2.89521,1.01729 11.067691,5.72469 16.400561,9.44679 1.62634,1.13513 1.88414,1.27286 1.88414,1.00666 z m -8.91606,-10.54981 c -5.551501,-5.69694 -18.140861,-9.31227 -26.026134,-7.47403 -2.81766,0.65687 -2.84841,0.76552 -0.25774,0.91073 7.202653,0.40371 15.375473,2.52848 24.580243,6.39034 2.213631,0.92874 2.464981,0.95425 1.703631,0.17296 z m 4.52937,-3.69999 c -3.6433,-6.03358 -7.920501,-17.93467 -9.855541,-27.42254 -0.26186,-1.28392 -0.16864,-1.28486 -2.0847,0.0211 -2.19508,1.49612 -4.39791,2.69055 -6.54781,3.55041 -2.26055,0.90412 -1.96107,0.50175 -2.81546,3.78274 -0.8768,3.36703 -1.89367,6.87747 -2.47938,8.55929 -0.23888,0.68589 -0.41522,1.2649 -0.39187,1.28668 0.0234,0.0218 0.96739,0.19395 2.09787,0.3826 7.53457,1.25727 15.37251,4.96216 21.496301,10.16101 1.56746,1.33072 1.57545,1.3263 0.58059,-0.32127 z m 25.79734,-13.7464 c 0,-0.70209 -4.17458,-28.760891 -4.35615,-29.279271 -0.0347,-0.0991 -0.74525,-0.35611 -1.57894,-0.57106 -7.99749,-2.06202 -13.88723,-6.11116 -16.51832,-11.35618 -0.39977,-0.79694 -0.62404,-1.07352 -0.82381,-1.01597 -0.15098,0.0435 -0.82416,0.12959 -1.49595,0.19131 -1.74863,0.16067 -1.75816,0.17312 -1.17103,1.53051 1.83185,4.23498 6.44574,8.66834 11.69423,11.23664 1.79011,0.87598 5.69038,2.26621 6.35781,2.26621 0.48181,0 0.44556,-0.1481 1.19614,4.88628 2.40506,16.131501 3.0662,20.181201 3.34032,20.460791 0.69462,0.70844 3.35571,2.01749 3.3557,1.65074 z m -14.04362,-7.11272 c -2.14839,-3.78071 -5.43229,-6.29229 -11.66295,-8.92 l -0.78455,-0.33088 -0.19352,-1.07267 c -0.40295,-2.23345 -2.95737,-14.376531 -3.14276,-14.939871 -2.356481,-7.1604 -12.992351,-5.63311 -13.008201,1.86795 -0.0132,6.25188 6.13995,12.473991 11.32648,11.453401 1.184771,-0.23314 1.075231,-0.40349 1.694021,2.63445 0.29048,1.42608 0.54678,2.60638 0.56956,2.62287 0.0228,0.0165 0.61949,0.24266 1.32604,0.50257 2.6259,0.966 9.25268,4.30879 13.26635,6.69204 1.25629,0.74596 1.3016,0.70804 0.60953,-0.50986 z M 96.568499,97.291959 c -3.3569,-1.53404 -4.10799,-5.09827 -1.31626,-6.24615 0.70565,-0.29015 0.70129,-0.57592 -0.0202,-1.32671 -0.94739,-0.98583 -2.54223,-0.70718 -3.34232,0.58397 -0.56393,0.91005 -0.80342,-1.18349 -0.2566,-2.24323 1.65406,-3.20564 5.78356,-2.07267 6.66817,1.8295 l 0.28115,1.24019 -0.64006,1.27126 c -0.75256,1.49473 -0.69991,1.78368 0.47245,2.59296 1.111,0.76691 1.11095,0.76685 1.24069,1.61588 0.18453,1.20764 -1.2457,1.52376 -3.08699,0.68233 z M 121.41414,111.1815 c -0.0434,-0.25424 -0.3128,-2.0886 -0.59856,-4.07634 -0.28576,-1.98775 -0.73002,-4.97446 -0.98725,-6.63715 l -0.46769,-3.023071 -1.96978,-0.687 c -2.36373,-0.8244 -4.93478,-2.09666 -6.76885,-3.34949 -0.74065,-0.50594 -1.37431,-0.89273 -1.40812,-0.85954 -0.0338,0.0332 0.4459,2.9517 1.06604,6.48558 0.62015,3.533881 1.07813,6.578001 1.01775,6.764711 -0.073,0.22579 -0.0463,0.30096 0.0798,0.22445 0.11452,-0.0695 0.18964,0.0182 0.18964,0.22126 0,0.26761 0.72578,0.70425 3.55417,2.13824 1.9548,0.99109 4.13226,2.12629 4.83881,2.52268 1.53362,0.86041 1.55462,0.86438 1.454,0.27567 z m 13.1667,-14.346561 c 3.98554,-1.08727 3.82144,-0.57179 1.52393,-4.78705 -0.95366,-1.74968 -1.82849,-3.38926 -1.94408,-3.64351 -0.30862,-0.67887 -0.35075,-0.62635 -1.07931,1.34576 -0.36697,0.99333 -1.04141,2.80856 -1.49875,4.03382 -1.40424,3.76216 -1.02464,4.14843 2.99821,3.05098 z m -58.252091,-5.81224 c 0.30423,-0.4321 0.90433,-1.20744 1.33354,-1.72299 l 0.7804,-0.93735 -0.31566,-1.42882 c -3.004243,-13.59845 5.62132,-27.032399 18.62303,-29.004604 2.3613,-0.358181 6.924991,-0.276407 8.130311,0.145681 l 0.76413,0.267589 1.12001,-1.040429 c 2.89832,-2.692368 8.2693,-7.867807 8.20956,-7.910676 -0.0368,-0.02638 -0.87617,-0.289033 -1.86534,-0.583652 -24.920971,-7.422584 -45.351918,13.856534 -38.422114,40.017171 0.87804,3.3147 0.86667,3.29948 1.642133,2.19808 z m 57.082401,-16.8225 c -0.0657,-0.43915 -0.46301,-2.31133 -0.88296,-4.1604 -0.41994,-1.84906 -1.14736,-5.17738 -1.61648,-7.396258 -1.2098,-5.722147 -1.90254,-8.860219 -2.03502,-9.218521 -0.0956,-0.258682 -0.43582,-0.01073 -2.07549,1.512871 -1.0786,1.002244 -3.92621,3.598724 -6.32804,5.769953 -2.40181,2.171231 -6.04701,5.499548 -8.10041,7.396265 -2.05341,1.89671 -4.54231,4.1578 -5.5309,5.02465 -2.11449,1.85412 -2.11093,1.77652 -0.0627,1.36137 7.59397,-1.53919 16.12363,-1.51118 24.14319,0.0793 2.79977,0.55526 2.63078,0.58033 2.48876,-0.36923 z m 3.72574,-13.835479 c 3.8416,-1.246865 5.8702,-5.088168 4.36703,-8.269253 -0.56831,-1.202658 -0.55722,-1.206282 -0.58119,0.189913 -0.0513,2.986738 -1.69452,5.824745 -4.45157,7.688253 -1.30625,0.882901 -1.14371,0.978379 0.66573,0.391087 z"
       id="path1279" /></g></svg>
